<?xml version="1.0" encoding="utf-8"?>
<!-- Generator: Adobe Illustrator 24.0.2, SVG Export Plug-In . SVG Version: 6.00 Build 0)  -->
<svg version="1.1" id="Layer_1" xmlns="http://www.w3.org/2000/svg" xmlns:xlink="http://www.w3.org/1999/xlink" x="0px" y="0px"
	 viewBox="0 0 512 512" enable-background="new 0 0 512 512" xml:space="preserve">
<path fill="#707070" d="M256,0C114.52,0,0,114.5,0,256c0,44.9,11.71,88.76,33.95,127.44L0.96,485.87
	c-2.3,7.14-0.41,14.97,4.89,20.27c5.25,5.25,13.06,7.21,20.27,4.89l102.43-32.98C167.24,500.29,211.1,512,256,512
	c141.48,0,256-114.5,256-256C512,114.52,397.5,0,256,0z M256,472c-40.56,0-80.09-11.32-114.33-32.73
	c-4.93-3.08-11.04-3.91-16.73-2.08l-73.94,23.81l23.81-73.94c1.8-5.61,1.04-11.73-2.08-16.73C51.32,336.09,40,296.56,40,256
	c0-119.1,96.9-216,216-216s216,96.9,216,216S375.1,472,256,472z M281,256c0,13.8-11.19,25-25,25s-25-11.2-25-25
	c0-13.81,11.19-25,25-25S281,242.19,281,256z M381,256c0,13.8-11.19,25-25,25s-25-11.2-25-25c0-13.81,11.19-25,25-25
	S381,242.19,381,256z M181,256c0,13.8-11.19,25-25,25c-13.8,0-25-11.2-25-25c0-13.81,11.2-25,25-25C169.81,231,181,242.19,181,256z"
	/>
</svg>
