<svg xmlns="http://www.w3.org/2000/svg" width="13.5" height="18" viewBox="0 0 13.5 18"><defs><style>.a{fill:#f15e5f;}</style></defs><g transform="translate(-64)"><g transform="translate(64)"><path class="a" d="M69.625,3.375a2.859,2.859,0,1,0-5.625,0,3.294,3.294,0,0,0,2.2,3.288l-1.061,9.459a1.517,1.517,0,0,0-.011.19,1.687,1.687,0,1,0,3.375,0,1.524,1.524,0,0,0-.008-.161L67.59,6.6A3.331,3.331,0,0,0,69.625,3.375Z" transform="translate(-64 0)"/></g><g transform="translate(71.875)"><path class="a" d="M293.062,0a.563.563,0,0,0-.562.562V3.375a.562.562,0,1,1-1.125,0V.562a.563.563,0,0,0-1.125,0V3.375a.563.563,0,0,1-1.125,0V.562a.562.562,0,1,0-1.125,0V3.937a2.813,2.813,0,0,0,2.195,2.739l-1.06,9.445a1.756,1.756,0,0,0-.01.19,1.687,1.687,0,1,0,3.375,0,1.52,1.52,0,0,0-.008-.161l-.9-9.525a2.808,2.808,0,0,0,2.033-2.689V.562A.563.563,0,0,0,293.062,0Z" transform="translate(-288)"/></g></g></svg>