<svg id="Layer_1" data-name="Layer 1" xmlns="http://www.w3.org/2000/svg" viewBox="0 0 54.83 52.91"><title>menu icon</title><path d="M56,8.9h32.6a0,0,0,0,1,0,0V58.77a0,0,0,0,1,0,0H56a2,2,0,0,1-2-2V10.9a2,2,0,0,1,2-2Z" transform="translate(108.87 58.77) rotate(-180)" fill="#ededed"/><rect x="27.96" y="9.14" width="18.7" height="0.94" rx="0.2" fill="#bfbfbf"/><rect x="27.96" y="12.85" width="18.7" height="0.94" rx="0.2" fill="#bfbfbf"/><rect x="27.96" y="16.9" width="18.7" height="0.94" rx="0.2" fill="#bfbfbf"/><rect x="27.96" y="20.66" width="18.7" height="0.94" rx="0.2" fill="#bfbfbf"/><rect x="27.96" y="24.42" width="18.7" height="0.94" rx="0.2" fill="#bfbfbf"/><rect x="27.96" y="28.47" width="18.7" height="0.94" rx="0.2" fill="#bfbfbf"/><rect x="27.96" y="32.23" width="18.7" height="0.94" rx="0.2" fill="#bfbfbf"/><rect x="28.18" y="35.89" width="18.7" height="0.94" rx="0.2" fill="#bfbfbf"/><rect x="28.18" y="39.65" width="18.7" height="0.94" rx="0.2" fill="#bfbfbf"/><polygon points="20.23 0 34.6 3.04 34.6 42.78 20.23 42.78 20.23 0" fill="#f7f7f7"/><path d="M2,3H34.6a0,0,0,0,1,0,0V52.91a0,0,0,0,1,0,0H2a2,2,0,0,1-2-2V5A2,2,0,0,1,2,3Z" fill="#d6aa83"/><circle cx="16.95" cy="19.26" r="0.72" fill="#eaeaea"/><path d="M62.81,40.68s0-.08,0-.12a12.07,12.07,0,0,0-24.13,0s0,.08,0,.12Z" transform="translate(-33.81 -8.9)" fill="#eaeaea"/><rect x="3.41" y="31.78" width="27.06" height="1.43" fill="#cecece"/></svg>