<?xml version="1.0" encoding="utf-8"?>
<!-- Generator: Adobe Illustrator 22.0.0, SVG Export Plug-In . SVG Version: 6.00 Build 0)  -->
<svg version="1.1" id="Capa_1" xmlns="http://www.w3.org/2000/svg" xmlns:xlink="http://www.w3.org/1999/xlink" x="0px" y="0px"
	 viewBox="0 0 100 100" style="enable-background:new 0 0 100 100;" xml:space="preserve">
<style type="text/css">
	.st0{fill:#FFFFFF;}
</style>
<title>Artboard 2</title>
<rect x="50.6" y="2.1" class="st0" width="7.9" height="7.9"/>
<rect x="42.7" y="10" class="st0" width="7.9" height="7.9"/>
<rect x="50.6" y="33.7" class="st0" width="7.9" height="7.9"/>
<rect x="58.5" y="41.6" class="st0" width="7.9" height="7.9"/>
<polygon class="st0" points="34.8,57.3 34.8,65.2 42.7,65.2 50.6,65.2 50.6,57.3 50.6,49.5 42.7,49.5 42.7,57.3 "/>
<rect x="3.2" y="49.5" class="st0" width="7.9" height="7.9"/>
<polygon class="st0" points="74.3,57.3 74.3,65.2 82.2,65.2 82.2,73.1 90.1,73.1 90.1,65.2 90.1,57.3 82.2,57.3 "/>
<rect x="82.2" y="41.6" class="st0" width="7.9" height="7.9"/>
<polygon class="st0" points="74.3,81 66.4,81 66.4,73.1 66.4,65.2 66.4,57.3 58.5,57.3 58.5,65.2 50.6,65.2 50.6,73.1 58.5,73.1 
	58.5,81 58.5,88.9 66.4,88.9 74.3,88.9 74.3,96.8 82.2,96.8 82.2,88.9 82.2,81 82.2,73.1 74.3,73.1 "/>
<polygon class="st0" points="90.1,88.9 90.1,96.8 98,96.8 98,88.9 98,81 98,73.1 90.1,73.1 90.1,81 "/>
<rect x="90.1" y="49.5" class="st0" width="7.9" height="7.9"/>
<polygon class="st0" points="42.7,88.9 42.7,96.8 50.6,96.8 58.5,96.8 58.5,88.9 50.6,88.9 "/>
<rect x="34.8" y="10" class="st0" width="0" height="15.8"/>
<polygon class="st0" points="42.7,41.9 34.8,41.9 34.8,41.9 34.8,57.7 34.8,57.7 42.7,57.7 42.7,49.8 50.6,49.8 50.6,41.9 "/>
<polygon class="st0" points="34.8,73.1 34.8,71.9 34.8,71.9 34.8,73.1 "/>
<polygon class="st0" points="11.1,65.2 10,65.2 10,65.2 11.1,65.2 "/>
<polygon class="st0" points="28.1,65.2 28.1,65.2 26.5,65.2 19.1,65.2 19.1,65.2 "/>
<polygon class="st0" points="34.8,90.1 34.8,90.1 34.8,88.9 34.8,88.9 "/>
<polygon class="st0" points="66.4,8.8 66.4,8.8 66.4,17.9 66.4,17.9 "/>
<polygon class="st0" points="98,27 98,25.8 98,25.8 98,27 "/>
<path class="st0" d="M91.3,2.1H73.1c-3.7,0-6.7,3-6.7,6.7v9.1l0,0v9c0,3.7,3,6.7,6.7,6.7h18.2c3.7,0,6.7-3,6.7-6.7V8.8l0,0
	C98,5.1,95,2.1,91.3,2.1z M91.9,12.3v11.2c0,2.3-1.8,4.1-4.1,4.1H76.6c-2.3,0-4.1-1.8-4.1-4.1V12.3c0-2.3,1.8-4.1,4.1-4.1h11.2
	C90.1,8.2,91.9,10,91.9,12.3z"/>
<path class="st0" d="M28.1,2.1H10c-3.7,0-6.7,3-6.7,6.7v18.1c0,3.7,3,6.7,6.7,6.7h18.2c3.7,0,6.7-3,6.7-6.7V8.8
	C34.8,5.1,31.8,2.1,28.1,2.1z M29.5,12.5v11.8c0,2.4-1.9,4.3-4.3,4.3H13.4c-2.4,0-4.3-1.9-4.3-4.3V12.5c0-2.4,1.9-4.3,4.3-4.3h11.8
	C27.6,8.2,29.5,10.1,29.5,12.5z"/>
<path class="st0" d="M28.1,65.2H10c-3.7,0-6.7,3-6.7,6.7v18.2c0,3.7,3,6.7,6.7,6.7h18.2c3.7,0,6.7-3,6.7-6.7V71.9
	C34.8,68.2,31.8,65.2,28.1,65.2z M29.4,75.1v12c0,2.4-2,4.4-4.4,4.4h0H13c-2.4,0-4.4-2-4.4-4.4l0,0v-12c0-2.4,2-4.4,4.4-4.4h0h12
	C27.4,70.7,29.4,72.7,29.4,75.1L29.4,75.1z"/>
<rect x="11" y="49.5" class="st0" width="7.9" height="7.9"/>
<rect x="11" y="41.6" class="st0" width="7.9" height="7.9"/>
<rect x="18.8" y="41.6" class="st0" width="7.9" height="7.9"/>
<rect x="50.6" y="25.9" class="st0" width="7.9" height="7.9"/>
</svg>
