<?xml version="1.0" encoding="utf-8"?>
<!-- Generator: Adobe Illustrator 24.0.2, SVG Export Plug-In . SVG Version: 6.00 Build 0)  -->
<svg version="1.1" id="Layer_1" xmlns="http://www.w3.org/2000/svg" xmlns:xlink="http://www.w3.org/1999/xlink" x="0px" y="0px"
	 viewBox="0 0 856.6 1024" enable-background="new 0 0 856.6 1024" xml:space="preserve">
<title>logo</title>
<g>
	<path fill="#707070" d="M744.7,373.1c7.2,18.3,45.2,119.8-7.3,204.1c-31.2,50.1-79.9,70.8-108.3,82.4
		c-113.2,46.3-179.7-8.2-313.2,28.6c-36,10-70.5,24.7-102.7,43.7c-41,31.1-43.4,80.3-24.1,99.2c15,14.7,47.2,14.8,75.7-2.3
		c-4.2,11.7-22.2,57.3-69,78.8c-53.3,24.4-122.1,7.8-168.5-43.3c0,0-105.9-208.6,98.7-311.3c45.9-23,90.1-38.2,163.8-47.2
		c201.2-24.5,261.3,21.8,351.4-26.7C668.5,464.3,708.8,435.4,744.7,373.1z"/>
	<path fill="#8D8D8D" d="M855.4,0c0,0-103.5,93.8-255.2,115.5s-209.4,67.4-209.4,67.4s-202.2,89.9-132.4,369.9s-36.1,333-36.1,333
		s-69.8,77-195-21.7c0,0,130,250.3,344.2,122.8c75.4-90.7,92.5-166.3,93.5-220c2.2-130.1-89.5-213.4-47.1-317.8
		c20.7-50.9,59.9-86.7,59.9-86.7c27.5-25.1,55.7-38.3,76.9-48.1c33.7-15.5,59.3-21.4,74.3-25.5c13.6-3.7,115.9-32.7,172.2-95.9
		C856.7,130.8,858.7,45.8,855.4,0z"/>
	<path fill="#7F7F7F" d="M855.4,0c-9.8,31.9-28.8,79.3-68.3,122.6c-118.4,129.8-285.4,75.6-379.8,167.2
		c-50.8,49.3-90.6,150.6-34.2,380.9c35,115.6,2.5,225.9-68.5,266.9c-58.1,33.6-130.5,14.3-149.8,9.1
		c-70.5-18.8-112.3-64.3-127.4-82.5c3.8,8.3,67.6,143.4,205.2,158.5c69.3,7.6,123.8-18.9,146.9-32.1c37.6-27.6,57-56.4,67.4-75.9
		c36.7-68.8,26.9-144.8,14.8-238.5c-6.6-51.5-12.6-60.8-14.9-108.2c-2.4-49.8-4.2-89.2,11.8-135.2c7.9-22.8,25.5-62.1,66.1-101.3
		c10.1-6.9,20.6-13,31.6-18.3c21.6-10.3,55-22.6,101.8-31.3C658.1,281.9,874,236.1,855.4,0z"/>
</g>
</svg>
