<svg id="Layer_1" data-name="Layer 1" xmlns="http://www.w3.org/2000/svg" viewBox="0 0 70.43 63.74"><title>menu icon</title><path d="M31.25,64.58,5.54,59.14a6.35,6.35,0,0,1-4.77-6L.71,5A3.83,3.83,0,0,1,5.48,1l25.7,5.44a6.36,6.36,0,0,1,4.78,6L36,60.6A3.84,3.84,0,0,1,31.25,64.58ZM5.48,2.06A3.05,3.05,0,0,0,1.69,5.22l.05,48.14a5.07,5.07,0,0,0,3.8,4.76l25.7,5.43A3,3,0,0,0,35,60.4L35,12.26a5.07,5.07,0,0,0-3.8-4.76Z" transform="translate(-0.71 -0.94)" style="fill:#fff"/><path d="M35.85,60.6l0-48.13a6.34,6.34,0,0,1,4.77-6L66.38,1a3.83,3.83,0,0,1,4.76,4l0,48.14a6.35,6.35,0,0,1-4.77,6L40.61,64.58A3.83,3.83,0,0,1,35.85,60.6ZM40.67,7.5a5,5,0,0,0-3.79,4.76L36.83,60.4a3,3,0,0,0,3.78,3.15l25.71-5.43a5,5,0,0,0,3.79-4.76l0-48.14a3,3,0,0,0-3.78-3.16Z" transform="translate(-0.71 -0.94)" style="fill:#fff"/><path d="M28.91,24.28h-.16L7.43,19.76a.75.75,0,0,1-.57-.89.74.74,0,0,1,.88-.58L29.06,22.8a.75.75,0,0,1-.15,1.48Z" transform="translate(-0.71 -0.94)" style="fill:#fff"/><path d="M28.91,30.91l-.16,0L7.43,26.38a.75.75,0,0,1,.31-1.47l21.32,4.51a.75.75,0,0,1,.58.89A.74.74,0,0,1,28.91,30.91Z" transform="translate(-0.71 -0.94)" style="fill:#fff"/><path d="M28.91,37.49l-.16,0L7.43,33a.75.75,0,0,1,.31-1.47L29.06,36a.75.75,0,0,1,.58.89A.74.74,0,0,1,28.91,37.49Z" transform="translate(-0.71 -0.94)" style="fill:#fff"/><path d="M29.13,44.07l-.15,0L7.66,39.54a.74.74,0,0,1-.58-.89A.76.76,0,0,1,8,38.07l21.32,4.51a.77.77,0,0,1,.58.89A.76.76,0,0,1,29.13,44.07Z" transform="translate(-0.71 -0.94)" style="fill:#fff"/><path d="M29.13,50.35l-.15,0L7.66,45.82a.74.74,0,0,1-.58-.89A.76.76,0,0,1,8,44.35l21.32,4.52a.75.75,0,0,1-.16,1.48Z" transform="translate(-0.71 -0.94)" style="fill:#fff"/><path d="M42.37,24.45h.16l21.32-4.51a.75.75,0,0,0-.31-1.47L42.22,23a.75.75,0,0,0,.15,1.48Z" transform="translate(-0.71 -0.94)" style="fill:#fff"/><path d="M42.37,31.08l.16,0,21.32-4.51a.75.75,0,0,0,.58-.89.77.77,0,0,0-.89-.58L42.22,29.6a.74.74,0,0,0-.58.88A.75.75,0,0,0,42.37,31.08Z" transform="translate(-0.71 -0.94)" style="fill:#fff"/><path d="M42.37,37.66l.16,0,21.32-4.51a.75.75,0,0,0,.58-.89.77.77,0,0,0-.89-.58L42.22,36.17a.75.75,0,0,0,.15,1.49Z" transform="translate(-0.71 -0.94)" style="fill:#fff"/><path d="M42.15,44.24l.16,0,21.32-4.51a.76.76,0,0,0,.58-.89.77.77,0,0,0-.89-.58L42,42.75a.75.75,0,0,0-.58.89A.74.74,0,0,0,42.15,44.24Z" transform="translate(-0.71 -0.94)" style="fill:#fff"/><path d="M42.15,50.52a.44.44,0,0,0,.16,0L63.63,46a.75.75,0,1,0-.31-1.46L42,49a.75.75,0,0,0,.15,1.48Z" transform="translate(-0.71 -0.94)" style="fill:#fff"/><path d="M24.89,15.57a1.73,1.73,0,0,1-.45-.05L11.16,12.46a2,2,0,1,1,.9-3.9l13.28,3.07a2,2,0,0,1-.45,3.94Z" transform="translate(-0.71 -0.94)" style="fill:#fff"/><path d="M45.66,15.57a1.73,1.73,0,0,0,.45-.05l13.28-3.06a2,2,0,1,0-.9-3.9L45.21,11.63a2,2,0,0,0,.45,3.94Z" transform="translate(-0.71 -0.94)" style="fill:#fff"/></svg>