<?xml version="1.0" encoding="utf-8"?>
<!-- Generator: Adobe Illustrator 24.0.2, SVG Export Plug-In . SVG Version: 6.00 Build 0)  -->
<svg version="1.1" id="Capa_1" xmlns="http://www.w3.org/2000/svg" xmlns:xlink="http://www.w3.org/1999/xlink" x="0px" y="0px"
	 viewBox="0 0 512 512" enable-background="new 0 0 512 512" xml:space="preserve">
<g>
	<g>
		<path fill="#707070" d="M224,96c0-53.02-35.81-96-80-96S64,42.98,64,96c0,45.79,26.75,83.94,62.5,93.54L96.32,458.59
			C96.1,460.35,96,462.18,96,464c0,26.5,21.5,48,48,48s48-21.5,48-48c0-1.54-0.06-3.07-0.22-4.58l-25.66-271.62
			C199.46,176.26,224,139.74,224,96z"/>
	</g>
</g>
<g>
	<g>
		<path fill="#707070" d="M432,0c-8.83,0-16,7.17-16,16v80c0,8.83-7.17,16-16,16s-16-7.17-16-16V16c0-8.83-7.17-16-16-16
			s-16,7.17-16,16v80c0,8.83-7.17,16-16,16s-16-7.17-16-16V16c0-8.83-7.17-16-16-16s-16,7.17-16,16v96
			c0,38.05,26.75,69.89,62.43,77.92l-30.14,268.67c-0.19,1.76-0.29,3.58-0.29,5.41c0,26.5,21.5,48,48,48s48-21.5,48-48
			c0-1.54-0.06-3.07-0.22-4.58l-25.6-270.94C423.46,178.78,448,148.35,448,112V16C448,7.17,440.83,0,432,0z"/>
	</g>
</g>
</svg>
