<svg id="Capa_1" data-name="Capa 1" xmlns="http://www.w3.org/2000/svg" viewBox="0 0 579.84 748"><title>slide menu</title><path d="M489,645.5s-3.5,37.2-62.2,29.7L259.8,654s-18.1-2.3-16.4-20.5l1.8-19s3.5-37.2,62.2-29.7l148.4,18.9s36.7,4.7,33.3,41.5l-.1.3Z" transform="translate(0 -30.5)" fill="#ddab89"/><path d="M579.1,293s11.1,39.8-52.4,55.3L346.2,392.5s-19.8,4.9-25.3-14.8l-5.6-20.1s-11.1-39.7,52.4-55.3L528.1,263s39.8-9.8,50.9,29.7l.1.3Z" transform="translate(0 -30.5)" fill="#ddab89"/><path d="M568.9,420.2s3.9,39.4-58.7,43.5l-178,11.7s-19.5,1.3-21.4-18.2l-2-20s-3.9-39.4,58.8-43.5l158.3-10.4s39.2-2.6,43.1,36.5l-.1.4Z" transform="translate(0 -30.5)" fill="#ddab89"/><path d="M561.7,517.1s4.1,41.5-61.8,45.8L312.6,575.2S292,576.5,290,556l-2.1-21s-4.1-41.5,61.8-45.8l166.6-10.9s41.3-2.7,45.4,38.5v.3Z" transform="translate(0 -30.5)" fill="#ddab89"/><polygon points="404.2 0.8 404.2 13.8 421.4 13.8 421.4 0.8 404.2 0.8" fill="#ededed"/><polygon points="210.4 63.6 210.4 567.2 536.1 567.2 536.1 63.6 210.4 63.6" fill="#2b2b2b"/><path d="M536,94.5v-14s0-49.9-62.3-49.9H272.6s-62.3-4.7-62.3,49.9v14ZM210.3,598.2v42.4s0,37.5,62.3,37.5H473.8s62.3,2.8,62.3-51.7V598.1l-325.8.1Z" transform="translate(0 -30.5)" fill="#2b2b2b"/><path d="M477.5,44.3h-83c-5.9.8-9.1,2.8-10.9,4.6-2.1,2-3.9,5-7.7,5.7a9.68,9.68,0,0,1-2.3.1c-4.8-.4-7.3-4-11.1-6.6a24.86,24.86,0,0,0-10.7-3.8H268.7c-25.6,0-46.4,20-46.4,44.6V619.8c0,24.6,20.8,44.6,46.4,44.6H477.5c25.6,0,46.4-20,46.4-44.6V88.9C523.9,64.2,503.1,44.3,477.5,44.3Z" transform="translate(0 -30.5)" fill="#fff"/><circle cx="373.9" cy="13.8" r="5.1" fill="#424242"/><path d="M458.5,165.7h35.1a8,8,0,0,1,8,8v2.1a8,8,0,0,1-8,8H458.5a8,8,0,0,1-8-8v-2.1A8,8,0,0,1,458.5,165.7Z" transform="translate(0 -30.5)" fill="#80ed66"/><path d="M482.4,634.7H263.7a13.61,13.61,0,0,1-13.6-13.6V600.4a13.61,13.61,0,0,1,13.6-13.6H482.3a13.61,13.61,0,0,1,13.6,13.6v20.7A13.47,13.47,0,0,1,482.4,634.7Z" transform="translate(0 -30.5)" fill="#f05e5f"/><path d="M443.8,601.8h35.1a8,8,0,0,1,8,8v2.1a8,8,0,0,1-8,8H443.8a8,8,0,0,1-8-8v-2.1A8,8,0,0,1,443.8,601.8Z" transform="translate(0 -30.5)" fill="#fff"/><path d="M411.7,87.4H264.3a3.59,3.59,0,0,1-3.6-3.6V72.3a3.59,3.59,0,0,1,3.6-3.6H411.7a3.59,3.59,0,0,1,3.6,3.6V83.9A3.56,3.56,0,0,1,411.7,87.4Z" transform="translate(0 -30.5)" fill="#f05e5f"/><path d="M325.8,107.2h-63a2.05,2.05,0,0,1-2.1-2.1V98.4a2.05,2.05,0,0,1,2.1-2.1h63a2.05,2.05,0,0,1,2.1,2.1v6.7A2.11,2.11,0,0,1,325.8,107.2Z" transform="translate(0 -30.5)" fill="#f05e5f"/><path d="M385.3,183.7H251.4a2.05,2.05,0,0,1-2.1-2.1V167.8a2.05,2.05,0,0,1,2.1-2.1H385.3a2.05,2.05,0,0,1,2.1,2.1v13.8A2.11,2.11,0,0,1,385.3,183.7Z" transform="translate(0 -30.5)" fill="#f0f0f0"/><path d="M285.7,202.8H251.4a2.05,2.05,0,0,1-2.1-2.1v-7.1a2.05,2.05,0,0,1,2.1-2.1h34.3a2.05,2.05,0,0,1,2.1,2.1v7.1A2,2,0,0,1,285.7,202.8Z" transform="translate(0 -30.5)" fill="#707070"/><path d="M322.2,649s126.2-100.1,63.3-150.9c-38.6-31.2-62.5,30.7-99.1,46.8-58.9,26-76.7,45.1-76.7,45.1V381.6c-9.2,2.6-50.1,22.2-65.8,44.9S47,673.4,42.1,688.5c-2.3,7.2-33.8,79.7-42.1,90H255.5c20.3-17.3,52.7-57.8,66.7-129.5Z" transform="translate(0 -30.5)" fill="#e8ba9c"/><path d="M342.8,550.1s-27.3-16.1-14.7-33c0,0,27.9-41.1,51.8-19.9,3,2.6,23.5,16.4,7.6,39.1l-5.3,7.6s-15.9,22.7-38.5,6.8l-.9-.6Z" transform="translate(0 -30.5)" fill="#efcfb9"/><path d="M458.5,225.2h35.1a8,8,0,0,1,8,8v2.1a8,8,0,0,1-8,8H458.5a8,8,0,0,1-8-8v-2.1A8.09,8.09,0,0,1,458.5,225.2Z" transform="translate(0 -30.5)" fill="#80ed66"/><path d="M385.3,243.2H251.4a2.05,2.05,0,0,1-2.1-2.1V227.3a2.05,2.05,0,0,1,2.1-2.1H385.3a2.05,2.05,0,0,1,2.1,2.1v13.8A2.05,2.05,0,0,1,385.3,243.2Z" transform="translate(0 -30.5)" fill="#f0f0f0"/><path d="M285.7,262.3H251.4a2.05,2.05,0,0,1-2.1-2.1v-7.1a2.05,2.05,0,0,1,2.1-2.1h34.3a2.05,2.05,0,0,1,2.1,2.1v7.1A2,2,0,0,1,285.7,262.3Z" transform="translate(0 -30.5)" fill="#707070"/><path d="M458.7,282.1h35.1a8,8,0,0,1,8,8v2.1a8,8,0,0,1-8,8H458.7a8,8,0,0,1-8-8v-2.1A8,8,0,0,1,458.7,282.1Z" transform="translate(0 -30.5)" fill="#80ed66"/><path d="M385.5,300.1H251.6a2.05,2.05,0,0,1-2.1-2.1V284.2a2.05,2.05,0,0,1,2.1-2.1H385.5a2.05,2.05,0,0,1,2.1,2.1V298A2.11,2.11,0,0,1,385.5,300.1Z" transform="translate(0 -30.5)" fill="#f0f0f0"/><path d="M285.9,319.3H251.6a2.05,2.05,0,0,1-2.1-2.1v-7.1a2.05,2.05,0,0,1,2.1-2.1h34.3a2.05,2.05,0,0,1,2.1,2.1v7.1A2.11,2.11,0,0,1,285.9,319.3Z" transform="translate(0 -30.5)" fill="#707070"/><path d="M458.7,341.7h35.1a8,8,0,0,1,8,8v2.1a8,8,0,0,1-8,8H458.7a8,8,0,0,1-8-8v-2.1A8,8,0,0,1,458.7,341.7Z" transform="translate(0 -30.5)" fill="#80ed66"/><path d="M385.5,359.7H251.6a2.05,2.05,0,0,1-2.1-2.1V343.8a2.05,2.05,0,0,1,2.1-2.1H385.5a2.05,2.05,0,0,1,2.1,2.1v13.8A2.18,2.18,0,0,1,385.5,359.7Z" transform="translate(0 -30.5)" fill="#f0f0f0"/><path d="M285.9,378.8H251.6a2.05,2.05,0,0,1-2.1-2.1v-7.1a2.05,2.05,0,0,1,2.1-2.1h34.3a2.05,2.05,0,0,1,2.1,2.1v7.1A2.05,2.05,0,0,1,285.9,378.8Z" transform="translate(0 -30.5)" fill="#707070"/><path d="M458.7,401.2h35.1a8,8,0,0,1,8,8v2.1a8,8,0,0,1-8,8H458.7a8,8,0,0,1-8-8v-2.1A8.09,8.09,0,0,1,458.7,401.2Z" transform="translate(0 -30.5)" fill="#80ed66"/><path d="M385.5,419.2H251.6a2.05,2.05,0,0,1-2.1-2.1V403.3a2.05,2.05,0,0,1,2.1-2.1H385.5a2.05,2.05,0,0,1,2.1,2.1v13.8A2.05,2.05,0,0,1,385.5,419.2Z" transform="translate(0 -30.5)" fill="#f0f0f0"/><path d="M286,438.4H251.7a2.05,2.05,0,0,1-2.1-2.1v-7.1a2.05,2.05,0,0,1,2.1-2.1H286a2.05,2.05,0,0,1,2.1,2.1v7.1A2.18,2.18,0,0,1,286,438.4Z" transform="translate(0 -30.5)" fill="#707070"/><path d="M458.7,460.8h35.1a8,8,0,0,1,8,8v2.1a8,8,0,0,1-8,8H458.7a8,8,0,0,1-8-8v-2.1A8.09,8.09,0,0,1,458.7,460.8Z" transform="translate(0 -30.5)" fill="#80ed66"/><path d="M385.5,478.8H251.6a2.05,2.05,0,0,1-2.1-2.1V462.9a2.05,2.05,0,0,1,2.1-2.1H385.5a2.05,2.05,0,0,1,2.1,2.1v13.8A2.05,2.05,0,0,1,385.5,478.8Z" transform="translate(0 -30.5)" fill="#f0f0f0"/><path d="M286,497.9H251.7a2.05,2.05,0,0,1-2.1-2.1v-7.1a2.05,2.05,0,0,1,2.1-2.1H286a2.05,2.05,0,0,1,2.1,2.1v7.1A2.11,2.11,0,0,1,286,497.9Z" transform="translate(0 -30.5)" fill="#707070"/><circle cx="483.7" cy="50.1" r="15.7" fill="#f0f0f0"/></svg>