<svg id="Layer_1" data-name="Layer 1" xmlns="http://www.w3.org/2000/svg" xmlns:xlink="http://www.w3.org/1999/xlink" viewBox="0 0 226.3 440.39"><defs><clipPath id="clip-path" transform="translate(-4.8 -4.03)"><rect x="4.9" y="47.2" width="221.4" height="342.5" fill="none"/></clipPath></defs><title>slide summary</title><path d="M226.8,107.9h0a3.86,3.86,0,0,1-3.8-3.8V84.7a3.86,3.86,0,0,1,3.8-3.8h0a3.86,3.86,0,0,1,3.8,3.8v19.5A3.92,3.92,0,0,1,226.8,107.9Z" transform="translate(-4.8 -4.03)" fill="#707070"/><path d="M227.3,141.9h0a3.86,3.86,0,0,1-3.8-3.8V118.6a3.86,3.86,0,0,1,3.8-3.8h0a3.86,3.86,0,0,1,3.8,3.8v19.5A3.93,3.93,0,0,1,227.3,141.9Z" transform="translate(-4.8 -4.03)" fill="#707070"/><polygon points="0.1 43.17 0.1 385.67 221.5 385.67 221.5 43.17 0.1 43.17" fill="#ededed"/><g clip-path="url(#clip-path)"><polygon points="13.7 43.17 13.7 385.67 207.8 385.67 207.8 43.17 13.7 43.17" fill="#fff"/></g><path d="M226.3,47.5V38s0-33.9-42.3-33.9H47.1S4.8.9,4.8,38v9.5ZM4.8,390v28.9s0,25.5,42.3,25.5H183.9s42.3,1.9,42.3-35.1V390Z" transform="translate(-4.8 -4.03)" fill="#254553"/><circle cx="109.14" cy="414.01" r="16.3" fill="#707070"/><text transform="translate(68.68 69.39)" font-size="17.86" fill="#707070" font-family="CoolveticaRg-Regular, Coolvetica" style="isolation:isolate"><tspan letter-spacing="-0.14em">Y</tspan><tspan x="8.25" y="0">our O</tspan><tspan x="48.81" y="0" letter-spacing="-0.03em">r</tspan><tspan x="54.01" y="0" letter-spacing="0em">de</tspan><tspan x="72.33" y="0" letter-spacing="-0.02em">r</tspan><tspan x="77.73" y="0">s</tspan></text><path d="M109.7,135h-72a4.69,4.69,0,0,1-4.7-4.7h0a4.69,4.69,0,0,1,4.7-4.7h72a4.76,4.76,0,0,1,4.7,4.7h0A4.83,4.83,0,0,1,109.7,135Z" transform="translate(-4.8 -4.03)" fill="#f0f0f0"/><path d="M110,160.3H38a4.69,4.69,0,0,1-4.7-4.7h0a4.69,4.69,0,0,1,4.7-4.7h72a4.69,4.69,0,0,1,4.7,4.7h0A4.69,4.69,0,0,1,110,160.3Z" transform="translate(-4.8 -4.03)" fill="#f0f0f0"/><path d="M109.7,186.7h-72A4.69,4.69,0,0,1,33,182h0a4.69,4.69,0,0,1,4.7-4.7h72a4.69,4.69,0,0,1,4.7,4.7h0A4.83,4.83,0,0,1,109.7,186.7Z" transform="translate(-4.8 -4.03)" fill="#f0f0f0"/><path d="M110.7,212.3h-72a4.69,4.69,0,0,1-4.7-4.7h0a4.69,4.69,0,0,1,4.7-4.7h72a4.69,4.69,0,0,1,4.7,4.7h0A4.83,4.83,0,0,1,110.7,212.3Z" transform="translate(-4.8 -4.03)" fill="#f0f0f0"/><text transform="translate(122.28 302.02)" font-size="15.37" fill="#707070" font-family="CoolveticaRg-Regular, Coolvetica" style="isolation:isolate">T</text><text transform="translate(129.2 302.02)" font-size="15.37" fill="#707070" font-family="CoolveticaRg-Regular, Coolvetica" style="isolation:isolate">otal :</text><text transform="translate(163.62 303.47)" font-size="20.02" fill="#707070" font-family="ArialMT, Arial" style="isolation:isolate">₹₹₹</text><text transform="translate(116.7 128.86)" font-size="13.51" fill="#707070" font-family="ArialMT, Arial" style="isolation:isolate">₹₹</text><text transform="translate(116.58 155.66)" font-size="13.51" fill="#707070" font-family="ArialMT, Arial" style="isolation:isolate">₹₹</text><text transform="translate(116.54 182.86)" font-size="13.51" fill="#707070" font-family="ArialMT, Arial" style="isolation:isolate">₹₹</text><text transform="translate(116.62 208.36)" font-size="13.51" fill="#707070" font-family="ArialMT, Arial" style="isolation:isolate">₹₹</text><path d="M199,96.6H31.7a.47.47,0,0,1-.5-.5h0c0-.3.2-.5.5-.4H199a.46.46,0,0,1,.5.4h0a.47.47,0,0,1-.5.5Z" transform="translate(-4.8 -4.03)" fill="#707070"/><path d="M201.5,286.6H34.2a.47.47,0,0,1-.5-.5h0a.47.47,0,0,1,.5-.5H201.5a.47.47,0,0,1,.5.5h0A.47.47,0,0,1,201.5,286.6Z" transform="translate(-4.8 -4.03)" fill="#707070"/><path d="M201,228.6H33.7a.47.47,0,0,1-.5-.5h0c0-.3.2-.5.5-.4H201a.46.46,0,0,1,.5.4h0a.47.47,0,0,1-.5.5Z" transform="translate(-4.8 -4.03)" fill="#707070"/><text transform="translate(30.7 240.32)" font-size="11.27" fill="#707070" font-family="ArialMT, Arial" style="isolation:isolate">S</text><text transform="translate(36.87 240.32)" font-size="11.27" fill="#707070" font-family="ArialMT, Arial" style="isolation:isolate">e</text><text transform="translate(42.82 240.32)" font-size="11.27" fill="#707070" font-family="ArialMT, Arial" style="isolation:isolate">r</text><text transform="translate(47.3 240.32)" font-size="11.27" fill="#707070" font-family="ArialMT, Arial" style="isolation:isolate">vi</text><text transform="translate(56.37 240.32)" font-size="11.27" fill="#707070" font-family="ArialMT, Arial" style="isolation:isolate">c</text><text transform="translate(61.33 240.32)" font-size="11.27" fill="#707070" font-family="ArialMT, Arial" style="isolation:isolate">e tax</text><text transform="translate(30.7 256.32)" font-size="11.27" fill="#707070" font-family="ArialMT, Arial" style="isolation:isolate">C</text><text transform="translate(37.07 256.32)" font-size="11.27" fill="#707070" font-family="ArialMT, Arial" style="isolation:isolate">GS<tspan x="16.28" y="0" letter-spacing="-0.02em">T</tspan></text><text transform="translate(30.7 272.32)" font-size="11.27" fill="#707070" font-family="ArialMT, Arial" style="isolation:isolate">SGS<tspan x="23.8" y="0" letter-spacing="-0.02em">T</tspan></text><text transform="translate(186.7 241.1)" font-size="12.5" fill="#707070" font-family="ArialMT, Arial" style="isolation:isolate">%</text><text transform="translate(186.2 256.6)" font-size="12.5" fill="#707070" font-family="ArialMT, Arial" style="isolation:isolate">%</text><text transform="translate(185.7 272.6)" font-size="12.5" fill="#707070" font-family="ArialMT, Arial" style="isolation:isolate">%</text><path d="M53.3,355.2H178.5a6.27,6.27,0,0,1,6.3,6.3v9.3a6.27,6.27,0,0,1-6.3,6.3H53.3a6.27,6.27,0,0,1-6.3-6.3v-9.3A6.27,6.27,0,0,1,53.3,355.2Z" transform="translate(-4.8 -4.03)" fill="#8cef7b"/><polygon points="61.9 67.27 67.2 67.27 67.2 67.27 61.9 67.27" fill="none"/><polygon points="193.5 120.67 191.9 119.47 185.5 127.87 182.4 125.57 181.2 127.17 184.7 129.77 185.8 130.67 193.5 120.67" fill="#44d859"/><path d="M191.8,200.3a5.7,5.7,0,1,0,5.7,5.7A5.76,5.76,0,0,0,191.8,200.3Zm0,10.3a4.5,4.5,0,1,1,4.5-4.5A4.48,4.48,0,0,1,191.8,210.6Z" transform="translate(-4.8 -4.03)" fill="#dff253"/><polygon points="187.1 199.37 186.2 199.37 186.2 201.77 186.2 202.67 186.2 202.67 189.2 202.67 189.2 201.77 187.1 201.77 187.1 199.37" fill="#dff253"/><polygon points="193.8 146.17 192.2 144.97 185.8 153.37 182.7 151.07 181.5 152.67 185 155.27 186.2 156.17 193.8 146.17" fill="#44d859"/><polygon points="193.7 172.67 192.1 171.47 185.6 179.87 182.6 177.57 181.4 179.17 184.8 181.77 186 182.67 193.7 172.67" fill="#44d859"/></svg>