<svg id="Layer_1" data-name="Layer 1" xmlns="http://www.w3.org/2000/svg" viewBox="0 0 221.5 440.09"><title>slide summary</title><polygon points="0.1 43.17 0.1 385.47 221.5 385.47 221.5 43.17 0.1 43.17" fill="#262626"/><path d="M223.9,43.5V34S223.9.1,181.6.1H44.8S2.5-3.1,2.5,34v9.5ZM2.5,385.8v28.8s0,25.5,42.3,25.5H181.5s42.3,1.9,42.3-35.1V385.8Z" transform="translate(-2.5 -0.03)" fill="#262626"/><path d="M181.9,9.4H127.3c-3.9.5-6,1.9-7.2,3.1-1.4,1.4-2.6,3.4-5.1,3.9a9.89,9.89,0,0,1-1.5.1c-3.2-.3-4.8-2.7-7.3-4.5a15.72,15.72,0,0,0-7-2.6H44.6A30.47,30.47,0,0,0,14.1,39.8V401.3a30.47,30.47,0,0,0,30.5,30.4H181.9a30.47,30.47,0,0,0,30.5-30.4V39.7A30.32,30.32,0,0,0,181.9,9.4Z" transform="translate(-2.5 -0.03)" fill="#fff"/><circle cx="111.3" cy="9.37" r="3.5" fill="#424242"/><path d="M50.5,391.1H175.7a6.25,6.25,0,0,1,6.3,6.2v9.4a6.25,6.25,0,0,1-6.2,6.3H50.5a6.25,6.25,0,0,1-6.3-6.2v-9.4a6.27,6.27,0,0,1,6.3-6.3Z" transform="translate(-2.5 -0.03)" fill="#8cef7b"/><line x1="29" y1="99.77" x2="193.5" y2="99.77" fill="none" stroke="#000" stroke-miterlimit="10" stroke-width="0.25"/><line x1="32.5" y1="194.57" x2="196.9" y2="194.57" fill="none" stroke="#000" stroke-miterlimit="10" stroke-width="0.25"/><path d="M114.1,130.1H36.6a3.12,3.12,0,0,1-3.1-3.1v-5.4a3.12,3.12,0,0,1,3.1-3.1h77.5a3.12,3.12,0,0,1,3.1,3.1V127A3.12,3.12,0,0,1,114.1,130.1Z" transform="translate(-2.5 -0.03)" fill="#f0f0f0"/><path d="M153.2,129.4H133.8a3.12,3.12,0,0,1-3.1-3.1v-5.4a3.12,3.12,0,0,1,3.1-3.1h19.4a3.12,3.12,0,0,1,3.1,3.1v5.4A3.18,3.18,0,0,1,153.2,129.4Z" transform="translate(-2.5 -0.03)" fill="#f0f0f0"/><path d="M195.5,129.4H172a3.12,3.12,0,0,1-3.1-3.1v-5.4a3.12,3.12,0,0,1,3.1-3.1h23.5a3.12,3.12,0,0,1,3.1,3.1v5.4A3.05,3.05,0,0,1,195.5,129.4Z" transform="translate(-2.5 -0.03)" fill="#f0f0f0"/><path d="M114.1,154H36.6a3.12,3.12,0,0,1-3.1-3.1v-5.4a3.12,3.12,0,0,1,3.1-3.1h77.5a3.12,3.12,0,0,1,3.1,3.1v5.4A3.12,3.12,0,0,1,114.1,154Z" transform="translate(-2.5 -0.03)" fill="#f0f0f0"/><path d="M153.2,153.3H133.8a3.12,3.12,0,0,1-3.1-3.1v-5.4a3.12,3.12,0,0,1,3.1-3.1h19.4a3.12,3.12,0,0,1,3.1,3.1v5.4A3.12,3.12,0,0,1,153.2,153.3Z" transform="translate(-2.5 -0.03)" fill="#f0f0f0"/><path d="M195.5,153.3H172a3.12,3.12,0,0,1-3.1-3.1v-5.4a3.12,3.12,0,0,1,3.1-3.1h23.5a3.12,3.12,0,0,1,3.1,3.1v5.4A3,3,0,0,1,195.5,153.3Z" transform="translate(-2.5 -0.03)" fill="#f0f0f0"/><path d="M114.1,179.1H36.6a3.12,3.12,0,0,1-3.1-3.1v-5.4a3.12,3.12,0,0,1,3.1-3.1h77.5a3.12,3.12,0,0,1,3.1,3.1V176A3.12,3.12,0,0,1,114.1,179.1Z" transform="translate(-2.5 -0.03)" fill="#f0f0f0"/><path d="M153.2,178.3H133.8a3.12,3.12,0,0,1-3.1-3.1v-5.4a3.12,3.12,0,0,1,3.1-3.1h19.4a3.12,3.12,0,0,1,3.1,3.1v5.4A3.12,3.12,0,0,1,153.2,178.3Z" transform="translate(-2.5 -0.03)" fill="#f0f0f0"/><path d="M195.5,178.3H172a3.12,3.12,0,0,1-3.1-3.1v-5.4a3.12,3.12,0,0,1,3.1-3.1h23.5a3.12,3.12,0,0,1,3.1,3.1v5.4A3,3,0,0,1,195.5,178.3Z" transform="translate(-2.5 -0.03)" fill="#f0f0f0"/><path d="M116.7,82H35.8a5.38,5.38,0,0,1-5.4-5.4V69.7a5.38,5.38,0,0,1,5.4-5.4h80.9a5.38,5.38,0,0,1,5.4,5.4v6.9A5.38,5.38,0,0,1,116.7,82Z" transform="translate(-2.5 -0.03)" fill="#f05e5f"/><path d="M115.6,218.2H38.2a3.12,3.12,0,0,1-3.1-3.1v-5.4a3.12,3.12,0,0,1,3.1-3.1h77.5a3.12,3.12,0,0,1,3.1,3.1v5.4A3.27,3.27,0,0,1,115.6,218.2Z" transform="translate(-2.5 -0.03)" fill="#707070"/><path d="M195.5,218.2H172a3.12,3.12,0,0,1-3.1-3.1v-5.4a3.12,3.12,0,0,1,3.1-3.1h23.5a3.12,3.12,0,0,1,3.1,3.1v5.4A3,3,0,0,1,195.5,218.2Z" transform="translate(-2.5 -0.03)" fill="#707070"/><path d="M124.8,365.2H38.5a3.12,3.12,0,0,1-3.1-3.1v-12a3.12,3.12,0,0,1,3.1-3.1h86.3a3.12,3.12,0,0,1,3.1,3.1v12A3,3,0,0,1,124.8,365.2Z" transform="translate(-2.5 -0.03)" fill="#707070"/><path d="M195.9,365.2H167.5a3.12,3.12,0,0,1-3.1-3.1v-12a3.12,3.12,0,0,1,3.1-3.1h28.4a3.12,3.12,0,0,1,3.1,3.1v12A3,3,0,0,1,195.9,365.2Z" transform="translate(-2.5 -0.03)" fill="#707070"/></svg>