<svg id="Capa_1" data-name="Capa 1" xmlns="http://www.w3.org/2000/svg" xmlns:xlink="http://www.w3.org/1999/xlink" viewBox="0 0 579.82 778.51"><defs><clipPath id="clip-path" transform="translate(-9.7 -10.11)"><polygon points="219.55 73.66 219.55 577.31 545.26 577.31 545.26 73.66 219.55 73.66 219.55 73.66" fill="none"/></clipPath></defs><title>slide menu</title><path d="M498.75,655.6s-3.49,37.19-62.2,29.73l-167-21.23s-18.15-2.31-16.44-20.52l1.78-19s3.49-37.19,62.2-29.73l148.42,18.87s36.71,4.66,33.25,41.5v.38Z" transform="translate(-9.7 -10.11)" fill="#ddab89"/><circle cx="372.72" cy="607.65" r="30.14" fill="#9d9d9c"/><polygon points="403.66 0.84 403.66 13.77 420.87 13.77 420.87 0.84 403.66 0.84 403.66 0.84" fill="#ededed"/><path d="M588.77,303.12s11.13,39.75-52.41,55.31l-180.54,44.2s-19.8,4.85-25.3-14.79l-5.64-20.12S313.75,328,377.29,312.41l160.52-39.3s39.83-9.75,50.88,29.73l.08.28Z" transform="translate(-9.7 -10.11)" fill="#ddab89"/><path d="M578.64,430.31s3.9,39.42-58.74,43.54l-178,11.68s-19.51,1.29-21.43-18.17l-2-20s-3.89-39.42,58.75-43.53l158.27-10.4s39.23-2.57,43.09,36.55v.3Z" transform="translate(-9.7 -10.11)" fill="#ddab89"/><path d="M571.44,527.18s4.1,41.5-61.84,45.83l-187.34,12.3s-20.56,1.35-22.58-19.15l-2.08-21s-4.09-41.49,61.84-45.82L526,488.4s41.33-2.71,45.4,38.5v.28Z" transform="translate(-9.7 -10.11)" fill="#ddab89"/><polygon points="209.85 63.55 209.85 567.2 535.56 567.2 535.56 63.55 209.85 63.55 209.85 63.55" fill="#ededed"/><g clip-path="url(#clip-path)"><polygon points="229.97 63.51 229.97 567.2 515.44 567.2 515.44 63.51 229.97 63.51 229.97 63.51" fill="#fff"/></g><path d="M545.14,74.11v-14s0-49.9-62.26-49.9H281.72s-62.26-4.68-62.26,49.9v14ZM219.46,577.76V620.2s0,37.53,62.26,37.53H482.88s62.26,2.85,62.26-51.66V577.76Z" transform="translate(-9.7 -10.11)" fill="#254553"/><polygon points="346.46 29.27 346.46 38.39 419.1 38.39 419.1 29.27 346.46 29.27 346.46 29.27" fill="#ededed"/><path d="M345,561.68s-27.31-16.1-14.73-33c0,0,27.91-41.14,51.77-19.91,3,2.64,23.46,16.42,7.59,39.08l-5.3,7.58s-15.87,22.66-38.53,6.79l-.8-.56Z" transform="translate(-9.7 -10.11)" fill="#efcfb9"/><path d="M331.94,659.06S458.14,559,395.27,508.18C356.7,477,332.76,538.84,296.2,555c-58.9,26-76.74,45.11-76.74,45.11V391.66c-9.2,2.58-50.05,22.16-65.79,44.89s-96.95,247-101.86,262.07c-2.34,7.21-33.77,79.65-42.11,90H265.21c20.25-17.27,52.68-57.81,66.73-129.6Z" transform="translate(-9.7 -10.11)" fill="#e8ba9c"/><rect x="247.46" y="160.55" width="179.5" height="13.5" fill="#f0f0f0"/><rect x="247.96" y="206.05" width="179.5" height="13.5" fill="#f0f0f0"/><rect x="248.46" y="281.55" width="179.5" height="13.5" fill="#f0f0f0"/><rect x="445.46" y="157.55" width="51" height="18" rx="7.97" fill="#80ed66"/><rect x="445.46" y="202.55" width="51" height="18" rx="7.97" fill="#80ed66"/><rect x="446.46" y="277.55" width="51" height="18" rx="7.97" fill="#80ed66"/><rect x="413.51" y="82.55" width="88.96" height="37" rx="9.45" fill="#f0f0f0"/><rect x="247.46" y="324.55" width="179.5" height="13.5" fill="#f0f0f0"/><rect x="247.96" y="403.05" width="179.5" height="13.5" fill="#f0f0f0"/><rect x="248.46" y="449.55" width="179.5" height="13.5" fill="#f0f0f0"/><rect x="445.46" y="321.55" width="51" height="18" rx="7.97" fill="#80ed66"/><rect x="445.46" y="399.55" width="51" height="18" rx="7.97" fill="#80ed66"/><rect x="446.46" y="445.55" width="51" height="18" rx="7.97" fill="#80ed66"/><rect x="449.46" y="522.55" width="51" height="18" rx="7.97" fill="none" stroke="#ef3f3f" stroke-miterlimit="10" stroke-width="2"/><rect x="320.96" y="250.55" width="108.5" height="7" fill="#707070"/><rect x="318.96" y="137.55" width="108.5" height="7" fill="#707070"/><rect x="320.96" y="363.55" width="108.5" height="7" fill="#707070"/></svg>