<svg id="Layer_1" data-name="Layer 1" xmlns="http://www.w3.org/2000/svg" viewBox="0 0 220.2 236.61"><title>slide scan</title><polygon points="109.4 49.41 105.6 47.91 108.2 41.41 112 42.91 109.4 49.41" fill="#f3ad7a"/><path d="M118.4,44.5a1,1,0,0,0,.3,1.4h.1a1,1,0,0,0,1.4-.3v-.1l3.3-5.2a1,1,0,0,0-.3-1.4h-.1a1,1,0,0,0-1.4.3h0Z" transform="translate(-5.8 -4.49)" fill="#f3ad7a"/><path d="M114,42.5a1,1,0,0,0,.5,1.3h.1a1,1,0,0,0,1.3-.5v-.1l2.4-5.7a1,1,0,0,0-.5-1.3h-.1a1,1,0,0,0-1.3.6Z" transform="translate(-5.8 -4.49)" fill="#f3ad7a"/><path d="M111.3,40.4a1.08,1.08,0,0,1,1.5.5l2.4,4.4a3.48,3.48,0,0,1-1.1,1.3c-.3.2-1.2-.2-1.2-.2L110.8,42a1.38,1.38,0,0,1,.5-1.6Z" transform="translate(-5.8 -4.49)" fill="#f3ad7a"/><path d="M116.6,42.7a1,1,0,0,0,.4,1.4h.1a1,1,0,0,0,1.4-.4v-.1l2.8-5.5a1,1,0,0,0-.4-1.4h-.1a1,1,0,0,0-1.4.4v.1Z" transform="translate(-5.8 -4.49)" fill="#f3ad7a"/><path d="M112.9,44.4a2.15,2.15,0,0,0,.9,2.8l2.6,1.3a2,2,0,0,0,2.7-.8v-.1l1.3-2.6a2.15,2.15,0,0,0-.9-2.8l-2.6-1.4a2,2,0,0,0-2.7.8v.1Z" transform="translate(-5.8 -4.49)" fill="#f3ad7a"/><path d="M118.5,51.8l-.1.2a50.68,50.68,0,0,1-11.3,18.2c-6.1,6.2-12.9,9.4-19.7,9.4-14.1-.1-35.1-9.4-42.5-22.7a4.41,4.41,0,1,1,7.7-4.3c5.6,10,23.7,18.2,34.9,18.2,9.5,0,18.9-11,22.6-21.7Z" transform="translate(-5.8 -4.49)" fill="#c14e4d"/><path d="M120.9,208.8l1.4-83.6a6.75,6.75,0,0,0-13.5,0l5.1,82.2Z" transform="translate(-5.8 -4.49)" fill="#f3ad7a"/><path d="M129.1,215.2c.7-.4.6-.1.6-1.2,0-1.7-8-7-8.9-7.8-6.6-5.2-7.2-3.3-7.3-3.2a5,5,0,0,0-2,5.8c1,3.1,4.8.4,6.4,3.1C120.4,216,127,215.8,129.1,215.2Z" transform="translate(-5.8 -4.49)" fill="#405067"/><polygon points="107.9 211.01 106.5 211.01 105.9 204.61 108.2 204.61 107.9 211.01" fill="#405067"/><path d="M120.3,205.9s5.3,3.5,5.2,5c-.2,1.3-10.2-3.3-11.2-4.1a3,3,0,0,1-1-3.6,3.71,3.71,0,0,1,4.7-1.1C119.5,203,120.3,205.9,120.3,205.9Z" transform="translate(-5.8 -4.49)" fill="#f3ad7a"/><path d="M104.2,206.2l1.4-82.4a6.7,6.7,0,1,0-13.4,0l5,80.9Z" transform="translate(-5.8 -4.49)" fill="#f3ad7a"/><path d="M113,215.2c.7-.4.6-.1.6-1.2,0-1.7-8-7-8.9-7.8-6.6-5.2-7.2-3.3-7.3-3.2a5,5,0,0,0-2,5.8c1,3.1,4.8.4,6.4,3.1C104.3,216,111,215.8,113,215.2Z" transform="translate(-5.8 -4.49)" fill="#0f2436"/><polygon points="91.8 211.01 90.4 211.01 89.8 204.61 92.1 204.61 91.8 211.01" fill="#0f2436"/><path d="M104.2,205.9s5.3,3.5,5.2,5c-.1,1.3-10.2-3.3-11.2-4.1a3,3,0,0,1-1-3.6,3.71,3.71,0,0,1,4.7-1.1C103.4,203,104.2,205.9,104.2,205.9Z" transform="translate(-5.8 -4.49)" fill="#f3ad7a"/><path d="M81.4,81.8A13.25,13.25,0,0,0,82.9,59V53.7a2.79,2.79,0,0,0-.8-2,5.55,5.55,0,0,0-.8-.6,3.18,3.18,0,0,0-.9-.3s-11.4-2.9-15.3-3c-4.3,0-17,3-17,3a2.69,2.69,0,0,0-2.6,2.8S52,86.9,51.3,92.8c-1.4,12.1-4.4,27.8-5.3,34.7l-.4,3H82.8s-.2-1.1-.4-3c-.9-6.8-3.1-23.3-3-29.8A143.91,143.91,0,0,1,81.4,81.8Z" transform="translate(-5.8 -4.49)" fill="#ff5c5c"/><path d="M80,108.1c-9.7.5-19.1.1-25.2-7C47,93.3,59.5,88.7,68.8,84,46.6,89.9,54,64.7,50.7,50.3c-1.6.4-2.6.6-2.6.6a2.69,2.69,0,0,0-2.6,2.8S52,87,51.3,92.9c-1.4,12.1-4.4,27.8-5.3,34.7l-.4,3H82.8s-.2-1.1-.4-3C81.8,123.2,80.7,115.1,80,108.1Z" transform="translate(-5.8 -4.49)" fill="#e25454"/><path d="M108.5,113.9h-.7l-59.1-5.5c-2.7,3.1-5.7,6.9-5.7,15.5a15.51,15.51,0,0,0,15.5,15.5l43.4.6c.4,0,.9.1,1.3.1h3.2c8.6,0,15.5-5.9,15.5-13.1C121.9,120.3,116,114.8,108.5,113.9Z" transform="translate(-5.8 -4.49)" fill="#405067"/><path d="M112.2,133.6c-6.2,1.6-17.1,1.6-23.3,0-10.8-4.6-24.8,0-37.2-7.8-4-2-6.8-6.7-6.9-11.8a23.93,23.93,0,0,0-1.9,9.9,15.51,15.51,0,0,0,15.5,15.5l43.4.6c.4,0,.9.1,1.3.1h3.2c8.6,0,15.5-5.9,15.5-13.1a9,9,0,0,0-.4-2.8C119.5,128.8,116.6,132.7,112.2,133.6Z" transform="translate(-5.8 -4.49)" fill="#212a36"/><path d="M69.9,52.3a5.34,5.34,0,0,1-5.3,5.3h0a5.34,5.34,0,0,1-5.3-5.3V34.9a5.34,5.34,0,0,1,5.3-5.3h0a5.34,5.34,0,0,1,5.3,5.3h0Z" transform="translate(-5.8 -4.49)" fill="#d69b6b"/><path d="M80.8,22.7c0,.8-2.8,1.5-2.9,2.3s2.3,1.5,2.1,2.1A17.72,17.72,0,0,1,63,40.7a16.68,16.68,0,0,1-6.2-1.2h0A18.13,18.13,0,0,1,45.5,23.7V22.6a18,18,0,0,1,12-17.2,16.4,16.4,0,0,1,9.8-.3,8.8,8.8,0,0,1,1.5.5,15.63,15.63,0,0,1,4,2.2A18.37,18.37,0,0,1,80.8,22.7Z" transform="translate(-5.8 -4.49)" fill="#472611"/><path d="M80.7,25.5c0,10-6.2,18.1-13.9,18.1S52.9,35.5,52.9,25.5,59.1,7.4,66.8,7.4A12,12,0,0,1,75,10.9a19.74,19.74,0,0,1,5.6,12.9A9.7,9.7,0,0,1,80.7,25.5Z" transform="translate(-5.8 -4.49)" fill="#f3ad7a"/><path d="M73.1,25.1c-.1-3.5,2.5-7,2.8-10.5.4-4.9-2.7-9.2-15.6-8.7-7,.3-15.1,10.9-15,19.3s8.2,15.2,15.2,15.1S73.2,33.5,73.1,25.1Z" transform="translate(-5.8 -4.49)" fill="#472611"/><path d="M81.5,23.1C77.7,27,72.4,29.4,70,27.6c-2.8-2.1-1.8-8.2,2.3-13.6a30.6,30.6,0,0,1,3.6-3.6A17.88,17.88,0,0,1,81.5,23.1Z" transform="translate(-5.8 -4.49)" fill="#472611"/><path d="M73.8,33.5c-1.2,1.1-3.6.5-5.4-1.3s-2.2-4.3-1-5.4,3.6-.5,5.4,1.3S75,32.4,73.8,33.5Z" transform="translate(-5.8 -4.49)" fill="#f3ad7a"/><path d="M56.1,18c2.2-4.2-.3-3.9-.9-4.5a13.74,13.74,0,0,0-5.7.6c-3.8,1.1-6.6,4.8-8.7,8-2.9,4.4-2.7,8.9-3,14-.1,2.4-.8,6.8-3.5,7.8a23.69,23.69,0,0,1-3.6.9.76.76,0,0,0-.8.6.6.6,0,0,0,.1.4c1.7,3.3,6,4.6,9.5,4.8,4.6.2,9.1-3,11.4-7C54,38.2,53.2,32.9,53.4,27A20.89,20.89,0,0,1,56.1,18Z" transform="translate(-5.8 -4.49)" fill="#472611"/><path d="M55.3,12.4a7.84,7.84,0,0,0-7,0c-1.4.8-3.5,2.4-3.6,4.3,0,.4.2.3.5,0A8.69,8.69,0,0,1,51.5,14c1.6-.1,3.8.9,4.2,2.5a5,5,0,0,1-.9,4.1c-.1.2,0,.4.3.3a4.63,4.63,0,0,0,2.5-6.1A3.91,3.91,0,0,0,55.3,12.4Z" transform="translate(-5.8 -4.49)" fill="#ff5c5c"/><path d="M122.9,51.3a2,2,0,0,1-1.9,1.9l-5.8-.1a1.9,1.9,0,0,1-1.9-1.9l.2-14a2,2,0,0,1,1.9-1.9h0l5.8.1a2,2,0,0,1,1.9,1.9Z" transform="translate(-5.8 -4.49)" fill="#aaa"/><path d="M122.2,51.4a2,2,0,0,1-1.9,1.9h0l-5.8-.1a2,2,0,0,1-1.9-1.9l.2-14a2,2,0,0,1,1.9-1.9h0l5.8.1a2,2,0,0,1,1.9,1.9Z" transform="translate(-5.8 -4.49)" fill="#fff7dc"/><path d="M113.8,50.5a.87.87,0,0,1-.4-.9l.2-12.4a1,1,0,0,1,1.1-1.1l5.8.1a1.85,1.85,0,0,1,.7.2,1.19,1.19,0,0,1,.5.9l-.2,12.4a1,1,0,0,1-1.1,1.1l-5.8-.1A.72.72,0,0,1,113.8,50.5Z" transform="translate(-5.8 -4.49)" fill="#62c3ed"/><polygon points="117.7 56.41 113.2 57.41 111.5 49.51 116 48.51 117.7 56.41" fill="#f3ad7a"/><path d="M115.1,50.8a1.18,1.18,0,0,0,1.4.9h0a1.11,1.11,0,0,0,.9-1.4h0L116,43.4a1.16,1.16,0,0,0-1.4-.9h0a1.16,1.16,0,0,0-.9,1.4Z" transform="translate(-5.8 -4.49)" fill="#f3ad7a"/><path d="M115.3,53.3a2.28,2.28,0,0,0,2.6,2l3.3-.4a2.28,2.28,0,0,0,2-2.6l-.4-3.3a2.35,2.35,0,0,0-2.6-2l-3.3.4a2.28,2.28,0,0,0-2,2.6Z" transform="translate(-5.8 -4.49)" fill="#f3ad7a"/><path d="M122.5,50.1l-.1-3a1.15,1.15,0,1,0-2.3-.1v.2l.1,3.5Z" transform="translate(-5.8 -4.49)" fill="#f3ad7a"/><path d="M120.1,49.8l-.3-2.7a1.16,1.16,0,1,0-2.3.3h0l.4,2.9Z" transform="translate(-5.8 -4.49)" fill="#f3ad7a"/><path d="M115,51.2a1.1,1.1,0,0,0-1.4.8h0a1.1,1.1,0,0,0,.8,1.4l4.7,1.3a1.1,1.1,0,0,0,1.4-.8h0a1.1,1.1,0,0,0-.8-1.4h0Z" transform="translate(-5.8 -4.49)" fill="#f3ad7a"/><path d="M120,89.4a9.43,9.43,0,0,1-1,1c-4.1,3.9-9.6,4.8-15.6,2.6C91.4,88.4,77,67,74.6,56.4A4.43,4.43,0,0,1,77.7,51a4.47,4.47,0,0,1,5.4,3.1c0,.1.1.2.1.3,2,8.9,15.3,27.2,23.3,30.2,3.6,1.3,5.3.3,6.4-.7l.4-.5c4.4-5.1,5-18.7,3-25.1l8.4-2.7C127.1,63.2,127.4,80.8,120,89.4Z" transform="translate(-5.8 -4.49)" fill="#e25454"/><ellipse cx="110.1" cy="220.81" rx="110.1" ry="15.8" fill="#3d3245" opacity="0.5" style="isolation:isolate"/><polygon points="128 220.51 148 220.51 145 94.91 131 94.91 128 220.51" fill="#120700"/><rect x="74.4" y="86.31" width="127.2" height="17.2" fill="#461103"/><rect x="94.9" y="213.61" width="86.3" height="8.6" fill="#120700"/><rect x="68.1" y="148.41" width="5.9" height="72.5" fill="#120700"/><rect x="18.8" y="148.41" width="5.9" height="72.5" fill="#120700"/><rect x="92.7" y="148.41" width="5.9" height="72.5" fill="#260f01"/><rect x="43.4" y="148.41" width="5.9" height="72.5" fill="#260f01"/><rect x="71.4" y="148.41" width="5.9" height="72.5" fill="#260f01"/><rect x="22.2" y="148.41" width="5.9" height="72.5" fill="#260f01"/><rect x="18.8" y="146.01" width="60.1" height="5.1" fill="#260f01"/><rect x="18.2" y="136.41" width="57.2" height="9.6" fill="#ccc"/><rect x="96.1" y="148.41" width="5.9" height="72.5" fill="#461103"/><rect x="46.8" y="148.41" width="5.9" height="72.5" fill="#461103"/><rect x="44.4" y="146.01" width="60.1" height="5.1" fill="#461103"/><rect x="45.8" y="136.41" width="57.2" height="9.6" fill="#f7f7f7"/><polygon points="165 86.21 137.2 86.21 129.4 55.81 157.5 55.81 165 86.21" fill="#707070"/><polygon points="121.7 86.21 149.5 86.21 157.4 55.81 129.3 55.81 121.7 86.21" fill="#f0f0f0"/><path d="M149.9,73.3a4,4,0,0,1-.1,3.2,3.71,3.71,0,0,1-1.7,1.3c-1.8.7-2.8-.1-4.9.4a7.74,7.74,0,0,0-1.6.7,1.13,1.13,0,0,0-.4,1.5h0a.91.91,0,0,0,1.2,0,2.16,2.16,0,0,1-1.1,1.2,2.19,2.19,0,0,1-2.6-.7s-1.6-3.2,1.5-4.8a7.83,7.83,0,0,1,2.5-.7c3.1-.4,4.1.3,5.4-.4A3.35,3.35,0,0,0,149.9,73.3Z" transform="translate(-5.8 -4.49)" fill="#c14d4d"/><path d="M151.6,67.5a7.34,7.34,0,0,1-4,1.8,7.9,7.9,0,0,0-3.3,1s-3.1,1.4-2.1,5.7-.6,5.2-.6,5.2-1.1,1.2-3-.3c0,0,2,3.9,5.3,1.9a4.76,4.76,0,0,0,1.4-3.4c0-2-1.4-3.3-.7-4.9a3,3,0,0,1,.9-1.3,3.75,3.75,0,0,1,1.2-.7,7.6,7.6,0,0,1,1.1-.4,7.2,7.2,0,0,0,2.7-1.5A3.56,3.56,0,0,0,151.6,67.5Z" transform="translate(-5.8 -4.49)" fill="#ff5c5c"/><path d="M151.6,67.5a4.53,4.53,0,0,1-1.1,1.9c-1.8,2-4.4,1.2-5.9,2.6-.8.8-1.4,2.3-.5,5.9.5,1.8,0,3.5-1.1,4.1a3.06,3.06,0,0,1-2.3.1,3.9,3.9,0,0,1-2-1.3,4.53,4.53,0,0,0,3.2,2.5,3.72,3.72,0,0,0,2.3-.5,2.94,2.94,0,0,0,1-1.2c.6-1.1.4-2.3.2-3.7a9.85,9.85,0,0,1-.2-1.7,5,5,0,0,1,.2-2.1,5.37,5.37,0,0,1,1-1.6c.2-.1.3-.2.5-.3a7.49,7.49,0,0,1,1.6-.5A3.71,3.71,0,0,0,151.6,67.5Z" transform="translate(-5.8 -4.49)" fill="#e25454"/></svg>