<svg id="Capa_1" data-name="Capa 1" xmlns="http://www.w3.org/2000/svg" xmlns:xlink="http://www.w3.org/1999/xlink" viewBox="0 0 836.17 1024">
    <defs>
        <clipPath id="clip-path" transform="translate(-113.18)">
            <polygon points="436.61 247.22 436.61 750.88 762.32 750.88 762.32 247.22 436.61 247.22 436.61 247.22" fill="#9e9e9e"/>
        </clipPath>
        <clipPath id="clip-path-2" transform="translate(-113.18)">
            <polygon points="579.39 308.99 579.39 812.64 905.1 812.64 905.1 308.99 579.39 308.99 579.39 308.99" fill="#ededed"/></clipPath></defs>
    <title>scan state empty-01</title>
    <rect width="663.08" height="663.08" fill="#fafbfb"/>
    <rect x="331.54" y="27.09" width="50.74" height="50.74" fill="#424242"/>
    <rect x="280.8" y="77.83" width="50.74" height="50.74" fill="#424242"/>
    <polygon points="77.83 77.83 77.83 128.57 77.83 179.31 128.57 179.31 179.31 179.31 179.31 128.57 179.31 77.83 128.57 77.83 77.83 77.83" fill="#424242"/>
    <polygon points="483.77 77.83 483.77 128.57 483.77 179.31 534.51 179.31 585.25 179.31 585.25 128.57 585.25 77.83 534.51 77.83 483.77 77.83" fill="#424242"/>
    <polygon points="179.31 585.25 179.31 534.51 179.31 483.77 128.57 483.77 77.83 483.77 77.83 534.51 77.83 585.25 128.57 585.25 179.31 585.25" fill="#424242"/>
    <rect x="331.54" y="230.06" width="50.74" height="50.74" fill="#424242"/>
    <rect x="382.28" y="280.8" width="50.74" height="50.74" fill="#424242"/>
    <polygon points="230.06 382.28 230.06 433.03 280.8 433.03 331.54 433.03 331.54 382.28 331.54 331.54 280.8 331.54 280.8 382.28 230.06 382.28" fill="#424242"/>
    <path d="M343.24,382.28V331.54H394V280.8H343.24V230.06H444.72V179.31H343.24V77.83H394V27.09H140.27V280.8H191V230.06h50.74V280.8h50.74v50.74H241.75v50.74H343.24Zm-177.6-177.6V52.46H317.87V204.68Z" transform="translate(-113.18)" fill="#424242"/>
    <rect x="27.09" y="331.54" width="50.74" height="50.74" fill="#424242"/>
    <polygon points="483.77 382.28 483.77 433.03 534.51 433.03 534.51 483.77 585.25 483.77 585.25 433.03 585.25 382.28 534.51 382.28 483.77 382.28" fill="#424242"/>
    <rect x="534.51" y="280.8" width="50.74" height="50.74" fill="#424242"/>
    <polygon points="483.77 534.51 433.03 534.51 433.03 483.77 433.03 433.03 433.03 382.28 382.28 382.28 382.28 433.03 331.54 433.03 331.54 483.77 382.28 483.77 382.28 534.51 382.28 585.25 433.03 585.25 483.77 585.25 483.77 636 534.51 636 534.51 585.25 534.51 534.51 534.51 483.77 483.77 483.77 483.77 534.51" fill="#424242"/>
    <polygon points="585.25 585.25 585.25 636 636 636 636 585.25 636 534.51 636 483.77 585.25 483.77 585.25 534.51 585.25 585.25" fill="#424242"/>
    <rect x="585.25" y="331.54" width="50.74" height="50.74" fill="#424242"/>
    <path d="M444.72,534.51V483.77H343.24V433H241.75V382.28H191V433H140.27V636h203V585.25H394V534.51ZM317.87,610.63H165.64V458.4H317.87Z" transform="translate(-113.18)" fill="#424242"/>
    <polygon points="280.8 585.25 280.8 636 331.54 636 382.28 636 382.28 585.25 331.54 585.25 280.8 585.25" fill="#424242"/>
    <path d="M546.21,27.09V128.57H444.72v50.74h50.74v50.75H597V280.8h50.74V230.06h50.75V280.8h50.74V27.09Zm25.37,177.59V52.46H723.81V204.68Z" transform="translate(-113.18)" fill="#424242"/>
    <rect x="230.06" y="230.06" width="202.97" height="202.97" fill="#fafbfb"/><g opacity="0.9"><path d="M498.81,307.8c1.22,3.12,7.72,20.48-1.25,34.88-5.33,8.57-13.65,12.1-18.5,14.08-19.34,7.91-30.71-1.4-53.54,4.89A72.9,72.9,0,0,0,408,369.12c-7,5.32-7.42,13.73-4.12,16.95,2.57,2.51,8.07,2.53,12.94-.4-.72,2-3.78,9.79-11.8,13.47-9.1,4.18-20.87,1.33-28.8-7.41,0,0-18.1-35.65,16.87-53.2,7.84-3.94,15.4-6.54,28-8.07,34.39-4.18,44.67,3.73,60.06-4.56C485.79,323.39,492.67,318.45,498.81,307.8Z" transform="translate(-113.18)" fill="#c14d4d"/>
    <path d="M517.73,244s-17.69,16-43.61,19.75-35.79,11.52-35.79,11.52-34.56,15.37-22.63,63.23-6.17,56.91-6.17,56.91-11.93,13.16-33.33-3.71c0,0,22.22,42.79,58.84,21,12.88-15.5,15.81-28.43,16-37.6.38-22.24-15.3-36.49-8-54.31A46,46,0,0,1,453.21,306a48.14,48.14,0,0,1,13.14-8.22,72.27,72.27,0,0,1,12.71-4.37c2.32-.63,19.81-5.59,29.43-16.39C518,266.4,518.29,251.87,517.73,244Z" transform="translate(-113.18)" fill="#f05e5f"/>
    <path d="M517.73,244a54.76,54.76,0,0,1-11.68,21c-20.23,22.18-48.78,12.92-64.91,28.57-8.69,8.42-15.49,25.74-5.86,65.1,6,19.76.43,38.61-11.71,45.62-9.92,5.74-22.3,2.43-25.59,1.56a43,43,0,0,1-21.78-14.11c.64,1.42,11.56,24.51,35.07,27.09a42,42,0,0,0,25.11-5.48,38.41,38.41,0,0,0,11.52-13c6.27-11.77,4.6-24.76,2.54-40.77-1.14-8.81-2.16-10.4-2.55-18.5-.4-8.51-.72-15.25,2-23.1a44.19,44.19,0,0,1,11.3-17.31,43.38,43.38,0,0,1,5.4-3.13,70.6,70.6,0,0,1,17.4-5.35S520.91,284.38,517.73,244Z" transform="translate(-113.18)" fill="#e25455"/></g>
    <g opacity="0.32">
    </g><polygon points="660.02 246.28 660.02 259.21 677.23 259.21 677.23 246.28 660.02 246.28 660.02 246.28" fill="#ededed"/><path d="M948.6,538.45s11.13,39.76-52.41,55.31L715.66,638s-19.81,4.85-25.31-14.79l-5.63-20.11s-11.13-39.76,52.41-55.31l160.52-39.3s39.82-9.75,50.88,29.72l.07.28Z" transform="translate(-113.18)" fill="#ddab89"/><path d="M938.48,665.65s3.89,39.42-58.75,43.53l-178,11.69s-19.51,1.28-21.43-18.18l-2-20s-3.9-39.42,58.74-43.54L895.35,628.8s39.23-2.58,43.1,36.55l0,.3Z" transform="translate(-113.18)" fill="#ddab89"/><path d="M931.27,762.52s4.1,41.5-61.83,45.83L682.1,820.65s-20.56,1.35-22.58-19.16l-2.08-21s-4.1-41.5,61.84-45.83l166.56-10.93s41.33-2.72,45.4,38.5l0,.28Z" transform="translate(-113.18)" fill="#ddab89"/><path d="M858.59,890.94s-3.49,37.19-62.21,29.72l-167-21.22s-18.14-2.31-16.44-20.52l1.79-19s3.48-37.19,62.2-29.72l148.42,18.86s36.7,4.67,33.25,41.51l0,.35Z" transform="translate(-113.18)" fill="#ddab89"/><polygon points="466.21 308.99 466.21 812.64 791.92 812.64 791.92 308.99 466.21 308.99 466.21 308.99" fill="#ededed"/><g clip-path="url(#clip-path-2)"><polygon points="486.33 308.96 486.33 812.64 771.8 812.64 771.8 308.96 486.33 308.96 486.33 308.96" fill="#fff"/></g><path d="M905,309.44v-14s0-49.89-62.26-49.89H641.55s-62.26-4.68-62.26,49.89v14ZM579.29,813.1v42.43s0,37.54,62.26,37.54H842.72S905,895.91,905,841.41V813.1Z" transform="translate(-113.18)" fill="#254553"/><polygon points="602.81 274.72 602.81 283.83 675.46 283.83 675.46 274.72 602.81 274.72 602.81 274.72" fill="#ededed"/><path d="M704.81,797s-27.31-16.1-14.73-33c0,0,27.91-41.15,51.77-19.92,3,2.65,23.45,16.43,7.59,39.08l-5.31,7.59s-15.86,22.65-38.52,6.79l-.8-.56Z" transform="translate(-113.18)" fill="#efcfb9"/><circle cx="629.08" cy="853.1" r="30.14" fill="#9d9d9c"/><rect x="538.28" y="458.5" width="181.6" height="181.6" fill="#fafbfb"/><rect x="629.08" y="465.91" width="13.9" height="13.9" fill="#424242"/><rect x="615.18" y="479.81" width="13.9" height="13.9" fill="#424242"/><polygon points="559.59 479.81 559.59 493.71 559.59 507.61 573.49 507.61 587.38 507.61 587.38 493.71 587.38 479.81 573.49 479.81 559.59 479.81" fill="#424242"/><polygon points="670.77 479.81 670.77 493.71 670.77 507.61 684.67 507.61 698.57 507.61 698.57 493.71 698.57 479.81 684.67 479.81 670.77 479.81" fill="#424242"/><polygon points="587.38 618.79 587.38 604.89 587.38 590.99 573.49 590.99 559.59 590.99 559.59 604.89 559.59 618.79 573.49 618.79 587.38 618.79" fill="#424242"/><rect x="629.08" y="521.5" width="13.9" height="13.9" fill="#424242"/><rect x="642.98" y="535.4" width="13.9" height="13.9" fill="#424242"/><polygon points="601.28 563.2 601.28 577.09 615.18 577.09 629.08 577.09 629.08 563.2 629.08 549.3 615.18 549.3 615.18 563.2 601.28 563.2" fill="#424242"/><path d="M714.46,563.2V549.3h13.9V535.4h-13.9V521.5h27.8V507.61h-27.8v-27.8h13.9v-13.9H658.87V535.4h13.9V521.5h13.9v13.9h13.9v13.9h-13.9v13.9h27.79Zm-48.64-48.64v-41.7h41.7v41.7Z" transform="translate(-113.18)" fill="#424242"/><rect x="545.69" y="549.3" width="13.9" height="13.9" fill="#424242"/><polygon points="670.77 563.2 670.77 577.09 684.67 577.09 684.67 590.99 698.57 590.99 698.57 577.09 698.57 563.2 684.67 563.2 670.77 563.2" fill="#424242"/><rect x="684.67" y="535.4" width="13.9" height="13.9" fill="#424242"/><polygon points="670.77 604.89 656.87 604.89 656.87 590.99 656.87 577.09 656.87 563.2 642.98 563.2 642.98 577.09 629.08 577.09 629.08 590.99 642.98 590.99 642.98 604.89 642.98 618.79 656.87 618.79 670.77 618.79 670.77 632.68 684.67 632.68 684.67 618.79 684.67 604.89 684.67 590.99 670.77 590.99 670.77 604.89" fill="#424242"/><polygon points="698.57 618.79 698.57 632.68 712.46 632.68 712.46 618.79 712.46 604.89 712.46 590.99 698.57 590.99 698.57 604.89 698.57 618.79" fill="#424242"/><rect x="698.56" y="549.3" width="13.9" height="13.9" fill="#424242"/><path d="M742.26,604.89V591h-27.8v-13.9H686.67V563.2h-13.9v13.89h-13.9v55.59h55.59V618.79h13.9v-13.9Zm-34.74,20.84h-41.7V584h41.7Z" transform="translate(-113.18)" fill="#424242"/><polygon points="615.18 618.79 615.18 632.68 629.08 632.68 642.98 632.68 642.98 618.79 629.08 618.79 615.18 618.79" fill="#424242"/><path d="M770.05,465.91v27.8H742.26v13.9h13.9V521.5H784v13.9h13.9V521.5h13.9v13.9h13.89V465.91Zm7,48.65v-41.7h41.69v41.7Z" transform="translate(-113.18)" fill="#424242"/><polygon points="528.29 507.61 518.91 507.61 518.91 439.17 587.4 439.17 587.4 448.55 528.29 448.55 528.29 507.61" fill="#bdbdbd"/><polygon points="739.21 659.47 670.77 659.47 670.77 650.08 729.83 650.08 729.83 590.98 739.21 590.98 739.21 659.47" fill="#bdbdbd"/><polygon points="587.4 659.47 518.91 659.47 518.91 590.98 528.29 590.98 528.29 650.08 587.4 650.08 587.4 659.47" fill="#bdbdbd"/><polygon points="739.21 507.61 729.83 507.61 729.83 448.55 670.77 448.55 670.77 439.17 739.21 439.17 739.21 507.61" fill="#bdbdbd"/><rect x="486.33" y="309.44" width="285.37" height="111.79" fill="#424242"/><rect x="486.33" y="700.86" width="285.37" height="111.79" fill="#424242"/><path d="M691.78,894.39S818,794.29,755.11,743.51c-38.58-31.15-62.51,30.67-99.07,46.83-58.91,26-76.75,45.11-76.75,45.11V627c-9.19,2.58-50,22.16-65.78,44.89s-97,247-101.87,262.07c-2.34,7.2-33.76,79.65-42.1,90H625.05c20.25-17.27,52.68-57.81,66.73-129.61Z" transform="translate(-113.18)" fill="#e8ba9c"/><rect x="486.39" y="581.26" width="285.37" height="4.17" fill="#5ff96d"/><rect x="601.28" y="521.5" width="55.59" height="55.59" fill="#fafbfb"/><g opacity="0.8"><path d="M755.14,543.64c.29.75,1.84,4.88-.29,8.31a8.82,8.82,0,0,1-4.41,3.36c-4.61,1.88-7.32-.34-12.76,1.16a17.35,17.35,0,0,0-4.17,1.78c-1.67,1.27-1.77,3.27-1,4a2.67,2.67,0,0,0,3.08-.1,5.62,5.62,0,0,1-2.81,3.21,6,6,0,0,1-6.86-1.76s-4.32-8.49,4-12.68a18.85,18.85,0,0,1,6.67-1.92c8.19-1,10.64.89,14.31-1.08A10.76,10.76,0,0,0,755.14,543.64Z" transform="translate(-113.18)" fill="#c14d4d"/><path d="M759.65,528.45a21.39,21.39,0,0,1-10.39,4.71c-6.17.88-8.52,2.74-8.52,2.74s-8.24,3.66-5.39,15.06-1.48,13.56-1.48,13.56-2.84,3.14-7.93-.88c0,0,5.29,10.19,14,5,3.07-3.7,3.77-6.78,3.81-9,.09-5.3-3.65-8.69-1.92-12.94a10.92,10.92,0,0,1,2.44-3.53,11.66,11.66,0,0,1,3.13-2,17.17,17.17,0,0,1,3-1c.55-.15,4.72-1.33,7-3.9S759.78,530.32,759.65,528.45Z" transform="translate(-113.18)" fill="#f05e5f"/><path d="M759.65,528.45a13,13,0,0,1-2.78,5c-4.82,5.29-11.62,3.08-15.47,6.81-2.06,2-3.68,6.13-1.39,15.51,1.43,4.71.1,9.2-2.79,10.87-2.36,1.36-5.31.58-6.1.37a10.23,10.23,0,0,1-5.18-3.36c.15.34,2.75,5.84,8.35,6.45a10,10,0,0,0,6-1.31,9.2,9.2,0,0,0,2.75-3.09c1.49-2.8,1.09-5.89.6-9.71-.27-2.1-.51-2.47-.61-4.4a13.71,13.71,0,0,1,.48-5.51,10.72,10.72,0,0,1,2.69-4.12,11.87,11.87,0,0,1,1.29-.75,17.08,17.08,0,0,1,4.15-1.27A10.5,10.5,0,0,0,759.65,528.45Z" transform="translate(-113.18)" fill="#e25455"/></g></svg>