<svg xmlns="http://www.w3.org/2000/svg" viewBox="0 0 432.67 188.67"><defs><style>.cls-1{font-size:12px;font-family:MyriadPro-Regular, Myriad Pro;}.cls-2{letter-spacing:0em;}.cls-3{letter-spacing:-0.01em;}.cls-4{fill:#d6d6d6;}.cls-5{fill:none;}.cls-6{fill:#efefef;}.cls-7{fill:#707070;}.cls-8{fill:#7f7f7f;}.cls-9{fill:#383838;}.cls-10{fill:#939393;}.cls-11{fill:#6b6b6b;}.cls-12{fill:#aaa;}.cls-13{fill:#878787;}.cls-14{fill:#606060;}.cls-15{fill:#f15d5f;}.cls-16{fill:#cc5056;}.cls-17{fill:#a03f44;}.cls-18{fill:#455a64;}</style></defs><title>Artboard 1</title><g id="Objects"><text class="cls-1" transform="translate(182 33.33)"><tspan class="cls-2">R</tspan><tspan x="6.5" y="0">e</tspan><tspan class="cls-3" x="12.52" y="0">c</tspan><tspan x="17.82" y="0">eipt</tspan></text><polygon class="cls-4" points="247.17 38.78 247.24 38.78 247.21 38.75 247.17 38.78"/><polygon class="cls-4" points="253.5 38.78 254.13 38.78 253.81 38.47 253.5 38.78"/><polygon class="cls-4" points="241.35 38.78 241.39 38.78 241.37 38.76 241.35 38.78"/><polygon class="cls-4" points="278.36 38.78 278.58 38.78 278.47 38.67 278.36 38.78"/><polygon class="cls-4" points="262.55 38.78 262.71 38.78 262.63 38.7 262.55 38.78"/><path class="cls-4" d="M238.05,33.88v4.9h-25V161h75.19V38.78h0v-4.9Zm3.3,4.9,0,0,0,0Zm5.82,0,0,0,0,0Zm6.33,0,.31-.31.32.31Zm9.05,0,.08-.08.08.08Zm15.81,0,.11-.11.11.11Z"/><path class="cls-4" d="M288.28,29a25.12,25.12,0,0,0-50.23,0v4.88h50.23Z"/><polygon class="cls-5" points="278.36 38.78 278.58 38.78 278.47 38.67 278.36 38.78"/><polygon class="cls-5" points="253.5 38.78 254.13 38.78 253.81 38.47 253.5 38.78"/><polygon class="cls-5" points="262.55 38.78 262.71 38.78 262.63 38.7 262.55 38.78"/><polygon class="cls-5" points="247.17 38.78 247.24 38.78 247.21 38.75 247.17 38.78"/><polygon class="cls-5" points="241.35 38.78 241.39 38.78 241.37 38.76 241.35 38.78"/><path class="cls-4" d="M213.08,165.32a18.31,18.31,0,0,0,18.31,18.31h75.2a18.33,18.33,0,0,1-18.32-18.31V161H213.08Z"/><path class="cls-4" d="M429.75,123.8a13.65,13.65,0,1,0-27.29,0v16.88h27.29Z"/><path class="cls-4" d="M366.06,75.29a20.58,20.58,0,0,0-41.15,0v5.64h41.15Z"/><rect class="cls-4" x="324.91" y="80.93" width="41.15" height="80.06"/><path class="cls-4" d="M366.06,163.46V161H324.91v4.34a18.44,18.44,0,0,1-10,16.33h69.37a18.2,18.2,0,0,1-18.2-18.19Z"/><path class="cls-6" d="M288.27,165.32a18.32,18.32,0,0,0,36.64,0V144.69H288.27Z"/><path class="cls-6" d="M402.46,123.8a13.64,13.64,0,0,1,13.64-13.65h-50v34.54h36.4Z"/><path class="cls-6" d="M366.06,144.69v18.77a18.2,18.2,0,0,0,36.4,0V144.69Z"/><path class="cls-6" d="M330.93,60.75a20.51,20.51,0,0,1,14.55-6H288.27v90h36.64V75.29A20.48,20.48,0,0,1,330.93,60.75Z"/><rect class="cls-7" x="306.59" y="112.01" width="11.77" height="2.52"/><rect class="cls-7" x="309.93" y="120.23" width="8.44" height="2.52"/><rect class="cls-7" x="306.59" y="128.46" width="11.77" height="2.52"/><rect class="cls-7" x="306.59" y="136.68" width="11.77" height="2.52"/><rect class="cls-7" x="309.93" y="161.35" width="8.44" height="2.52"/><rect class="cls-7" x="309.93" y="144.9" width="8.44" height="2.52"/><rect class="cls-7" x="306.59" y="153.13" width="11.77" height="2.52"/><rect class="cls-7" x="306.59" y="79.67" width="11.77" height="2.52"/><rect class="cls-7" x="309.93" y="104.34" width="8.44" height="2.52"/><rect class="cls-7" x="309.93" y="87.89" width="8.44" height="2.52"/><rect class="cls-7" x="306.59" y="96.11" width="11.77" height="2.52"/><polygon class="cls-8" points="285.89 107.82 171.35 107.82 107.24 125.5 221.77 125.5 285.89 107.82"/><polygon class="cls-9" points="160.04 113.75 151.33 116.15 243.61 116.15 252.32 113.75 160.04 113.75"/><rect class="cls-10" x="107.24" y="125.49" width="114.53" height="17.26"/><polygon class="cls-8" points="107.24 142.75 2.44 172.49 116.98 172.49 221.77 142.75 107.24 142.75"/><rect class="cls-11" x="2.45" y="172.49" width="114.53" height="13.22"/><path class="cls-7" d="M285.89,107.82v32.8a12.18,12.18,0,0,1-7.36,11.18l-24.44,10.54a12.19,12.19,0,0,0-7.35,11.19h0a12.19,12.19,0,0,1-12.18,12.18H117V172.49l104.79-29.74V125.49Z"/><path class="cls-6" d="M238.05,29A25.12,25.12,0,0,1,263.17,3.89H188.48A25.09,25.09,0,0,0,163.36,29v87.15h74.69Z"/><rect class="cls-6" x="163.36" y="114.65" width="74.69" height="1.5"/><polygon class="cls-12" points="106.96 145.48 87.17 151.09 108.8 151.09 128.58 145.48 106.96 145.48"/><rect class="cls-13" x="87.17" y="151.09" width="21.62" height="1.49"/><polygon class="cls-14" points="108.8 151.09 128.58 145.48 128.58 146.85 108.8 152.58 108.8 151.09"/><polygon class="cls-12" points="80.94 153.13 61.16 158.75 82.78 158.75 102.56 153.13 80.94 153.13"/><rect class="cls-13" x="61.16" y="158.75" width="21.62" height="1.49"/><polygon class="cls-14" points="82.78 158.75 102.56 153.13 102.56 154.51 82.78 160.24 82.78 158.75"/><polygon class="cls-12" points="54.42 160.79 34.64 166.4 56.26 166.4 76.05 160.79 54.42 160.79"/><rect class="cls-13" x="34.64" y="166.4" width="21.62" height="1.49"/><polygon class="cls-14" points="56.26 166.4 76.05 160.79 76.05 162.16 56.26 167.9 56.26 166.4"/><polygon class="cls-12" points="136.45 145.48 116.67 151.09 138.29 151.09 158.08 145.48 136.45 145.48"/><rect class="cls-13" x="116.67" y="151.09" width="21.62" height="1.49"/><polygon class="cls-14" points="138.29 151.09 158.08 145.48 158.08 146.85 138.29 152.58 138.29 151.09"/><polygon class="cls-12" points="110.44 153.13 90.65 158.75 112.28 158.75 132.06 153.13 110.44 153.13"/><rect class="cls-13" x="90.65" y="158.75" width="21.62" height="1.49"/><polygon class="cls-14" points="112.28 158.75 132.06 153.13 132.06 154.51 112.28 160.24 112.28 158.75"/><polygon class="cls-12" points="83.92 160.79 64.13 166.4 85.76 166.4 105.54 160.79 83.92 160.79"/><rect class="cls-13" x="64.13" y="166.4" width="21.62" height="1.49"/><polygon class="cls-14" points="85.76 166.4 105.54 160.79 105.54 162.16 85.76 167.9 85.76 166.4"/><polygon class="cls-12" points="166.75 145.48 146.97 151.09 168.59 151.09 188.38 145.48 166.75 145.48"/><rect class="cls-13" x="146.97" y="151.09" width="21.62" height="1.49"/><polygon class="cls-14" points="168.59 151.09 188.38 145.48 188.38 146.85 168.59 152.58 168.59 151.09"/><polygon class="cls-12" points="140.74 153.13 120.95 158.75 142.58 158.75 162.36 153.13 140.74 153.13"/><rect class="cls-13" x="120.95" y="158.75" width="21.62" height="1.49"/><polygon class="cls-14" points="142.58 158.75 162.36 153.13 162.36 154.51 142.58 160.24 142.58 158.75"/><polygon class="cls-15" points="114.22 160.79 94.43 166.4 116.06 166.4 135.84 160.79 114.22 160.79"/><rect class="cls-16" x="94.43" y="166.4" width="21.62" height="1.49"/><polygon class="cls-17" points="116.06 166.4 135.84 160.79 135.84 162.16 116.06 167.9 116.06 166.4"/><rect class="cls-7" x="169.46" y="62.67" width="23.87" height="2.52"/><rect class="cls-7" x="169.46" y="70.89" width="16.04" height="2.52"/><rect class="cls-7" x="169.46" y="79.12" width="21.32" height="2.52"/><rect class="cls-7" x="169.46" y="87.34" width="27.4" height="2.52"/><rect class="cls-7" x="169.46" y="112.01" width="23.87" height="2.52"/><rect class="cls-7" x="169.46" y="95.56" width="43.47" height="2.52"/><rect class="cls-7" x="169.46" y="103.79" width="20.21" height="2.52"/><rect class="cls-7" x="221.24" y="62.67" width="8.39" height="2.52"/><rect class="cls-7" x="223.62" y="70.89" width="6.01" height="2.52"/><rect class="cls-7" x="221.24" y="79.12" width="8.39" height="2.52"/><rect class="cls-7" x="221.24" y="87.34" width="8.39" height="2.52"/><rect class="cls-7" x="223.62" y="112.01" width="6.01" height="2.52"/><rect class="cls-7" x="223.62" y="95.56" width="6.01" height="2.52"/><rect class="cls-7" x="221.24" y="103.79" width="8.39" height="2.52"/><path class="cls-18" d="M182.18,53.12a.2.2,0,0,1-.16-.07l-1.27-1.26a.24.24,0,0,1,0-.33.23.23,0,0,1,.34,0l1.26,1.26a.24.24,0,0,1-.17.4Z"/><path class="cls-18" d="M180.92,53.12a.24.24,0,0,1-.17-.4L182,51.46a.22.22,0,0,1,.33,0,.24.24,0,0,1,0,.33l-1.26,1.26A.23.23,0,0,1,180.92,53.12Z"/><path class="cls-18" d="M219.76,53.12a.23.23,0,0,1-.17-.07l-1.26-1.26a.24.24,0,0,1,0-.33.22.22,0,0,1,.33,0l1.26,1.26a.22.22,0,0,1,0,.33A.2.2,0,0,1,219.76,53.12Z"/><path class="cls-18" d="M218.5,53.12a.22.22,0,0,1-.17-.07.24.24,0,0,1,0-.33l1.26-1.26a.23.23,0,0,1,.33.33l-1.26,1.26A.2.2,0,0,1,218.5,53.12Z"/><path class="cls-18" d="M214,53.12a.22.22,0,0,1-.17-.07l-1.26-1.26a.24.24,0,0,1,0-.33.22.22,0,0,1,.33,0l1.26,1.26a.22.22,0,0,1,0,.33A.2.2,0,0,1,214,53.12Z"/><path class="cls-18" d="M212.72,53.12a.21.21,0,0,1-.17-.07.24.24,0,0,1,0-.33l1.26-1.26a.23.23,0,0,1,.33.33l-1.26,1.26A.2.2,0,0,1,212.72,53.12Z"/><path class="cls-18" d="M211.09,53.12a.22.22,0,0,1-.17-.07l-1.26-1.26a.23.23,0,1,1,.33-.33l1.26,1.26a.22.22,0,0,1,0,.33A.2.2,0,0,1,211.09,53.12Z"/><path class="cls-18" d="M209.83,53.12a.21.21,0,0,1-.17-.07.22.22,0,0,1,0-.33l1.26-1.26a.23.23,0,0,1,.33.33L210,53.05A.2.2,0,0,1,209.83,53.12Z"/><path class="cls-18" d="M208.2,53.12a.22.22,0,0,1-.17-.07l-1.26-1.26a.23.23,0,0,1,.33-.33l1.26,1.26a.22.22,0,0,1,0,.33A.2.2,0,0,1,208.2,53.12Z"/><path class="cls-18" d="M206.94,53.12a.21.21,0,0,1-.17-.07.22.22,0,0,1,0-.33L208,51.46a.23.23,0,0,1,.33.33l-1.26,1.26A.2.2,0,0,1,206.94,53.12Z"/><path class="cls-18" d="M205.31,53.12a.21.21,0,0,1-.17-.07l-1.26-1.26a.23.23,0,0,1,.33-.33l1.26,1.26a.22.22,0,0,1,0,.33A.2.2,0,0,1,205.31,53.12Z"/><path class="cls-18" d="M204,53.12a.2.2,0,0,1-.16-.07.22.22,0,0,1,0-.33l1.26-1.26a.23.23,0,1,1,.33.33l-1.26,1.26A.21.21,0,0,1,204,53.12Z"/><path class="cls-18" d="M202.42,53.12a.21.21,0,0,1-.17-.07L201,51.79a.23.23,0,0,1,.33-.33l1.26,1.26a.22.22,0,0,1,0,.33A.2.2,0,0,1,202.42,53.12Z"/><path class="cls-18" d="M201.15,53.12a.2.2,0,0,1-.16-.07.22.22,0,0,1,0-.33l1.26-1.26a.23.23,0,1,1,.33.33l-1.26,1.26A.21.21,0,0,1,201.15,53.12Z"/><path class="cls-18" d="M216.87,53.12a.22.22,0,0,1-.17-.07l-1.26-1.26a.24.24,0,0,1,0-.33.22.22,0,0,1,.33,0L217,52.72a.22.22,0,0,1,0,.33A.2.2,0,0,1,216.87,53.12Z"/><path class="cls-18" d="M215.61,53.12a.22.22,0,0,1-.17-.07.24.24,0,0,1,0-.33l1.26-1.26a.23.23,0,1,1,.33.33l-1.26,1.26A.2.2,0,0,1,215.61,53.12Z"/><path class="cls-18" d="M196.63,53.12a.2.2,0,0,1-.16-.07l-1.26-1.26a.23.23,0,0,1,.33-.33l1.26,1.26a.22.22,0,0,1,0,.33A.21.21,0,0,1,196.63,53.12Z"/><path class="cls-18" d="M195.37,53.12a.2.2,0,0,1-.16-.07.22.22,0,0,1,0-.33l1.26-1.26a.23.23,0,0,1,.33.33l-1.26,1.26A.22.22,0,0,1,195.37,53.12Z"/><path class="cls-18" d="M193.74,53.12a.2.2,0,0,1-.16-.07l-1.26-1.26a.23.23,0,0,1,.33-.33l1.26,1.26a.24.24,0,0,1,0,.33A.22.22,0,0,1,193.74,53.12Z"/><path class="cls-18" d="M192.48,53.12a.2.2,0,0,1-.16-.07.22.22,0,0,1,0-.33l1.26-1.26a.22.22,0,0,1,.33,0,.24.24,0,0,1,0,.33l-1.26,1.26A.22.22,0,0,1,192.48,53.12Z"/><path class="cls-18" d="M188,53.12a.2.2,0,0,1-.16-.07l-1.26-1.26a.23.23,0,1,1,.33-.33l1.26,1.26a.24.24,0,0,1,0,.33A.22.22,0,0,1,188,53.12Z"/><path class="cls-18" d="M186.7,53.12a.2.2,0,0,1-.16-.07.22.22,0,0,1,0-.33l1.26-1.26a.22.22,0,0,1,.33,0,.24.24,0,0,1,0,.33l-1.26,1.26A.23.23,0,0,1,186.7,53.12Z"/><path class="cls-18" d="M185.07,53.12a.2.2,0,0,1-.16-.07l-1.27-1.26a.24.24,0,0,1,0-.33.23.23,0,0,1,.34,0l1.26,1.26a.24.24,0,0,1-.17.4Z"/><path class="cls-18" d="M183.81,53.12a.24.24,0,0,1-.17-.4l1.27-1.26a.22.22,0,0,1,.33,0,.24.24,0,0,1,0,.33L184,53.05A.23.23,0,0,1,183.81,53.12Z"/><path class="cls-18" d="M190.85,53.12a.2.2,0,0,1-.16-.07l-1.26-1.26a.23.23,0,0,1,.33-.33L191,52.72a.24.24,0,0,1,0,.33A.22.22,0,0,1,190.85,53.12Z"/><path class="cls-18" d="M189.59,53.12a.2.2,0,0,1-.16-.07.22.22,0,0,1,0-.33l1.26-1.26a.22.22,0,0,1,.33,0,.24.24,0,0,1,0,.33l-1.26,1.26A.23.23,0,0,1,189.59,53.12Z"/><path class="cls-18" d="M199.52,53.12a.2.2,0,0,1-.16-.07l-1.26-1.26a.23.23,0,1,1,.33-.33l1.26,1.26a.22.22,0,0,1,0,.33A.21.21,0,0,1,199.52,53.12Z"/><path class="cls-18" d="M198.26,53.12a.2.2,0,0,1-.16-.07.22.22,0,0,1,0-.33l1.26-1.26a.23.23,0,0,1,.33.33l-1.26,1.26A.22.22,0,0,1,198.26,53.12Z"/></g></svg>