<svg id="Layer_1" data-name="Layer 1" xmlns="http://www.w3.org/2000/svg" viewBox="0 0 1080 1920"><title>dummy menu</title><rect width="1080" height="1920" fill="#fff"/><rect x="104.8" y="438.3" width="451.2" height="44.4" fill="#f0f0f0"/><path d="M878.7,618.5h118c14.9,0,26.8,11.7,26.8,26.2v6.8c0,14.5-12,26.2-26.8,26.2h-118c-14.9,0-26.8-11.7-26.8-26.2v-6.8C851.9,630.2,863.9,618.5,878.7,618.5Z" fill="#80ed66"/><path d="M744.1,108H927.3c13.7,0,24.8,11.4,24.8,25.6v48.9c0,14.1-11.1,25.6-24.8,25.6H744.1c-13.7,0-24.8-11.4-24.8-25.6V133.6C719.4,119.4,730.4,108,744.1,108Z" fill="#f0f0f0"/><path d="M415.2,744.1a10,10,0,0,1,10-10H691a10,10,0,0,1,10,10v3a10,10,0,0,1-10,10H425.2a10,10,0,0,1-10-10Z" fill="#707070"/><path d="M417.9,356.8a10,10,0,0,1,10-10H693.7a10,10,0,0,1,10,10v3a10,10,0,0,1-10,10H427.9a10,10,0,0,1-10-10Z" fill="#707070"/><path d="M415.2,1311.4a10,10,0,0,1,10-10H691a10,10,0,0,1,10,10v3a10,10,0,0,1-10,10H425.2a10,10,0,0,1-10-10Z" fill="#707070"/><path d="M878.1,1807.3H993.3a26.16,26.16,0,0,1,26.2,26.2v6.8a26.16,26.16,0,0,1-26.2,26.2H878.1a26.16,26.16,0,0,1-26.2-26.2v-6.8A26.16,26.16,0,0,1,878.1,1807.3Z" fill="none" stroke="#e96768" stroke-miterlimit="10" stroke-width="4"/><path d="M134.9,170.2c0-10.6,6.3-19.3,14-19.3H521c7.7,0,14,8.7,14,19.3V176c0,10.6-6.3,19.3-14,19.3H148.9c-7.7,0-14-8.7-14-19.3Z" fill="#707070"/><path d="M876.7,841.5h118c14.9,0,26.8,11.7,26.8,26.2v6.8c0,14.5-12,26.2-26.8,26.2h-118c-14.9,0-26.8-11.7-26.8-26.2v-6.8C849.9,853.2,861.9,841.5,876.7,841.5Z" fill="#80ed66"/><path d="M874.7,455.5h118c14.9,0,26.8,11.7,26.8,26.2v6.8c0,14.5-12,26.2-26.8,26.2h-118c-14.9,0-26.8-11.7-26.8-26.2v-6.8C847.9,467.2,859.9,455.5,874.7,455.5Z" fill="#80ed66"/><path d="M876.7,1007.5h118c14.9,0,26.8,11.7,26.8,26.2v6.8c0,14.5-12,26.2-26.8,26.2h-118c-14.9,0-26.8-11.7-26.8-26.2v-6.8C849.9,1019.2,861.9,1007.5,876.7,1007.5Z" fill="#80ed66"/><path d="M876.7,1171.5h118c14.9,0,26.8,11.7,26.8,26.2v6.8c0,14.5-12,26.2-26.8,26.2h-118c-14.9,0-26.8-11.7-26.8-26.2v-6.8C849.9,1183.2,861.9,1171.5,876.7,1171.5Z" fill="#80ed66"/><path d="M876.7,1409.5h118c14.9,0,26.8,11.7,26.8,26.2v6.8c0,14.5-12,26.2-26.8,26.2h-118c-14.9,0-26.8-11.7-26.8-26.2v-6.8C849.9,1421.2,861.9,1409.5,876.7,1409.5Z" fill="#80ed66"/><path d="M878.7,1575.5h118c14.9,0,26.8,11.7,26.8,26.2v6.8c0,14.5-12,26.2-26.8,26.2h-118c-14.9,0-26.8-11.7-26.8-26.2v-6.8C851.9,1587.2,863.9,1575.5,878.7,1575.5Z" fill="#80ed66"/><rect x="104.5" y="497" width="118.2" height="23" fill="#f0f0f0"/><rect x="104.8" y="612.3" width="451.2" height="44.4" fill="#f0f0f0"/><rect x="104.5" y="671" width="118.2" height="23" fill="#f0f0f0"/><rect x="104.8" y="835.8" width="451.2" height="44.4" fill="#f0f0f0"/><rect x="104.5" y="894.5" width="118.2" height="23" fill="#f0f0f0"/><rect x="106.3" y="1000.8" width="451.2" height="44.4" fill="#f0f0f0"/><rect x="106" y="1059.5" width="118.2" height="23" fill="#f0f0f0"/><rect x="104.8" y="1165.8" width="451.2" height="44.4" fill="#f0f0f0"/><rect x="104.5" y="1224.5" width="118.2" height="23" fill="#f0f0f0"/><rect x="104.8" y="1405.3" width="451.2" height="44.4" fill="#f0f0f0"/><rect x="104.5" y="1464" width="118.2" height="23" fill="#f0f0f0"/><rect x="106.3" y="1565.8" width="451.2" height="44.4" fill="#f0f0f0"/><rect x="106" y="1624.4" width="118.2" height="23" fill="#f0f0f0"/></svg>