<svg id="Layer_1" data-name="Layer 1" xmlns="http://www.w3.org/2000/svg" viewBox="0 0 375 812"><title>Menu</title><rect width="375" height="812" fill="none"/><rect width="375" height="812" fill="#fff"/><path id="Rectangle_46" data-name="Rectangle 46" d="M313.5,80h24A12.5,12.5,0,0,1,350,92.5h0A12.5,12.5,0,0,1,337.5,105h-24A12.5,12.5,0,0,1,301,92.5h0A12.5,12.5,0,0,1,313.5,80Z" fill="#f0f0f0"/><path id="Rectangle_47-2" data-name="Rectangle 47-2" d="M313.5,84h6a8.52,8.52,0,0,1,8.5,8.5h0a8.52,8.52,0,0,1-8.5,8.5h-6a8.52,8.52,0,0,1-8.5-8.5h0A8.52,8.52,0,0,1,313.5,84Z" fill="#fff"/><rect id="Rectangle_1-2" data-name="Rectangle 1-2" x="24" y="139" width="84" height="76" rx="19" fill="#fff"/><rect id="Rectangle_79-2" data-name="Rectangle 79-2" x="24" y="229" width="84" height="76" rx="19" fill="#fff"/><rect id="Rectangle_81-2" data-name="Rectangle 81-2" x="24" y="319" width="84" height="76" rx="19" fill="#fff"/><rect id="Rectangle_53-2" data-name="Rectangle 53-2" x="313" y="145" width="49" height="20" rx="6" fill="#4bec5f"/><rect id="Rectangle_80-2" data-name="Rectangle 80-2" x="313" y="235" width="49" height="20" rx="6" fill="#4bec5f"/><rect id="Rectangle_82-2" data-name="Rectangle 82-2" x="313" y="325" width="49" height="20" rx="6" fill="#4bec5f"/><rect id="Rectangle_58-2" data-name="Rectangle 58-2" x="313" y="412" width="49" height="20" rx="6" fill="#4bec5f"/><rect id="Rectangle_83-2" data-name="Rectangle 83-2" x="313" y="475" width="49" height="20" rx="6" fill="#4bec5f"/><rect id="Rectangle_84-2" data-name="Rectangle 84-2" x="313" y="538" width="49" height="20" rx="6" fill="#4bec5f"/><rect id="Rectangle_85-2" data-name="Rectangle 85-2" x="313" y="601" width="49" height="20" rx="6" fill="#4bec5f"/><g id="Bill"><g style="isolation:isolate"><text transform="translate(254 34)" font-size="17" fill="#fff" font-family="VarelaRound-Regular, Varela Round" letter-spacing="-0.01em" style="isolation:isolate">B</text><text transform="translate(265.65 34)" font-size="17" fill="#fff" font-family="VarelaRound-Regular, Varela Round" style="isolation:isolate">ill</text></g></g><rect x="121.1" y="145" width="126.22" height="13.14" rx="5.13" fill="#f0f0f0"/><rect x="121.1" y="161.4" width="34.05" height="13.14" rx="5.13" fill="#f0f0f0"/><rect x="121.1" y="177.81" width="54.99" height="13.14" rx="5.13" fill="#f0f0f0"/><rect x="121.1" y="236.01" width="126.22" height="13.14" rx="5.13" fill="#f0f0f0"/><rect x="121.1" y="252.41" width="34.05" height="13.14" rx="5.13" fill="#f0f0f0"/><rect x="121.1" y="268.82" width="54.99" height="13.14" rx="5.13" fill="#f0f0f0"/><rect x="122.17" y="325" width="126.22" height="13.14" rx="5.13" fill="#f0f0f0"/><rect x="122.17" y="341.4" width="34.05" height="13.14" rx="5.13" fill="#f0f0f0"/><rect x="122.17" y="357.81" width="54.99" height="13.14" rx="5.13" fill="#f0f0f0"/><rect x="26.07" y="412" width="126.22" height="13.14" rx="5.13" fill="#f0f0f0"/><rect x="26.07" y="428.4" width="34.05" height="13.14" rx="5.13" fill="#f0f0f0"/><rect x="26.07" y="444.81" width="54.99" height="13.14" rx="5.13" fill="#f0f0f0"/><rect x="26.07" y="475" width="126.22" height="13.14" rx="5.13" fill="#f0f0f0"/><rect x="26.07" y="491.4" width="34.05" height="13.14" rx="5.13" fill="#f0f0f0"/><rect x="26.07" y="507.81" width="54.99" height="13.14" rx="5.13" fill="#f0f0f0"/><rect x="26.07" y="538" width="126.22" height="13.14" rx="5.13" fill="#f0f0f0"/><rect x="26.07" y="554.4" width="34.05" height="13.14" rx="5.13" fill="#f0f0f0"/><rect x="26.07" y="570.81" width="54.99" height="13.14" rx="5.13" fill="#f0f0f0"/><rect x="26.07" y="601" width="126.22" height="13.14" rx="5.13" fill="#f0f0f0"/><rect x="26.07" y="617.4" width="34.05" height="13.14" rx="5.13" fill="#f0f0f0"/><rect x="26.07" y="633.81" width="54.99" height="13.14" rx="5.13" fill="#f0f0f0"/><rect x="46" y="15" width="154.21" height="27.43" rx="5.2" fill="#f45d5e"/><rect x="46" y="50.64" width="54.51" height="13.71" rx="5.2" fill="#f45d5e"/></svg>