<svg id="Capa_1" data-name="Capa 1" xmlns="http://www.w3.org/2000/svg" viewBox="0 0 836.14 1024"><title>empty_state_scan_qr</title><path d="M745.4,890.9s-3.5,37.2-62.2,29.7l-167-21.2s-18.1-2.3-16.4-20.5l1.8-19s3.5-37.2,62.2-29.7l148.4,18.9s36.7,4.7,33.3,41.5l-.1.3Z" fill="#ddab89"/><circle cx="629.1" cy="853.1" r="30.1" fill="#9d9d9c"/><rect width="663.1" height="663.1" fill="#fafbfb"/><rect x="331.5" y="27.1" width="50.7" height="50.7" fill="#424242"/><rect x="280.8" y="77.8" width="50.7" height="50.7" fill="#424242"/><polygon points="77.8 77.8 77.8 128.6 77.8 179.3 128.6 179.3 179.3 179.3 179.3 128.6 179.3 77.8 128.6 77.8 77.8 77.8" fill="#424242"/><polygon points="483.8 77.8 483.8 128.6 483.8 179.3 534.5 179.3 585.3 179.3 585.3 128.6 585.3 77.8 534.5 77.8 483.8 77.8" fill="#424242"/><polygon points="179.3 585.3 179.3 534.5 179.3 483.8 128.6 483.8 77.8 483.8 77.8 534.5 77.8 585.3 128.6 585.3 179.3 585.3" fill="#424242"/><rect x="382.3" y="280.8" width="50.7" height="50.7" fill="#424242"/><path d="M230.1,382.3V331.6h50.8V280.9H230.1V230.2H331.6V179.4H230.1V77.8h50.8V27.1H27.1V280.8H77.8V230.1h50.7v50.7h50.7v50.7H128.5v50.7ZM52.5,204.7V52.5H204.7V204.7Z" fill="#424242"/><rect x="27.1" y="331.5" width="50.7" height="50.7" fill="#424242"/><polygon points="483.8 382.3 483.8 433 534.5 433 534.5 483.8 585.3 483.8 585.3 433 585.3 382.3 534.5 382.3 483.8 382.3" fill="#424242"/><rect x="534.5" y="280.8" width="50.7" height="50.7" fill="#424242"/><polygon points="483.8 534.5 433 534.5 433 483.8 433 433 433 382.3 382.3 382.3 382.3 433 331.5 433 331.5 483.8 382.3 483.8 382.3 534.5 382.3 585.3 433 585.3 483.8 585.3 483.8 636 534.5 636 534.5 585.3 534.5 534.5 534.5 483.8 483.8 483.8 483.8 534.5" fill="#424242"/><polygon points="585.3 585.3 585.3 636 636 636 636 585.3 636 534.5 636 483.8 585.3 483.8 585.3 534.5 585.3 585.3" fill="#424242"/><rect x="585.3" y="331.5" width="50.7" height="50.7" fill="#424242"/><path d="M331.5,534.5V483.8H230.1V433H128.6V382.3H77.8V433H27.1V636h203V585.2h50.7V534.5ZM204.7,610.6H52.5V458.4H204.7Z" fill="#424242"/><polygon points="280.8 585.3 280.8 636 331.5 636 382.3 636 382.3 585.3 331.5 585.3 280.8 585.3" fill="#424242"/><path d="M433,27.1V128.6H331.5v50.7h50.7v50.8H483.7v50.7h50.7V230.1h50.8v50.7H636V27.1Zm25.4,177.6V52.5H610.6V204.7Z" fill="#424242"/><rect x="229.4" y="230" width="209.1" height="203" fill="#fafbfb"/><g opacity="0.9"><path d="M385.6,307.8c1.2,3.1,7.7,20.5-1.3,34.9-5.3,8.6-13.6,12.1-18.5,14.1-19.3,7.9-30.7-1.4-53.5,4.9a71.11,71.11,0,0,0-17.5,7.5c-7,5.3-7.4,13.7-4.1,17,2.6,2.5,8.1,2.5,12.9-.4-.7,2-3.8,9.8-11.8,13.5-9.1,4.2-20.9,1.3-28.8-7.4,0,0-18.1-35.6,16.9-53.2,7.8-3.9,15.4-6.5,28-8.1,34.4-4.2,44.7,3.7,60.1-4.6C372.6,323.4,379.5,318.5,385.6,307.8Z" fill="#c14d4d"/><path d="M404.5,244s-17.7,16-43.6,19.8-35.8,11.5-35.8,11.5-34.6,15.4-22.6,63.2-6.2,56.9-6.2,56.9-11.9,13.2-33.3-3.7c0,0,22.2,42.8,58.8,21,12.9-15.5,15.8-28.4,16-37.6.4-22.2-15.3-36.5-8-54.3A45.61,45.61,0,0,1,340,306a48.15,48.15,0,0,1,13.1-8.2,79.41,79.41,0,0,1,12.7-4.4c2.3-.6,19.8-5.6,29.4-16.4C404.8,266.4,405.1,251.9,404.5,244Z" fill="#f05e5f"/><path d="M404.5,244a54.42,54.42,0,0,1-11.7,21c-20.2,22.2-48.8,12.9-64.9,28.6-8.7,8.4-15.5,25.7-5.9,65.1,6,19.8.4,38.6-11.7,45.6-9.9,5.7-22.3,2.4-25.6,1.6a43.39,43.39,0,0,1-21.8-14.1c.6,1.4,11.6,24.5,35.1,27.1a42.41,42.41,0,0,0,25.1-5.5,37.83,37.83,0,0,0,11.5-13c6.3-11.8,4.6-24.8,2.5-40.8-1.1-8.8-2.2-10.4-2.5-18.5-.4-8.5-.7-15.3,2-23.1a43.38,43.38,0,0,1,11.3-17.3,36,36,0,0,1,5.4-3.1,74.77,74.77,0,0,1,17.4-5.4C370.8,292.2,407.7,284.4,404.5,244Z" fill="#e25455"/></g><polygon points="660 246.3 660 259.2 677.2 259.2 677.2 246.3 660 246.3" fill="#ededed"/><path d="M835.4,538.5s11.1,39.8-52.4,55.3L602.5,638s-19.8,4.8-25.3-14.8l-5.6-20.1s-11.1-39.8,52.4-55.3l160.5-39.3s39.8-9.8,50.9,29.7v.3Z" fill="#ddab89"/><path d="M825.3,665.7s3.9,39.4-58.8,43.5l-178,11.7s-19.5,1.3-21.4-18.2l-2-20s-3.9-39.4,58.7-43.5l158.3-10.4s39.2-2.6,43.1,36.5l.1.4Z" fill="#ddab89"/><path d="M818.1,762.5s4.1,41.5-61.8,45.8L569,820.6s-20.6,1.3-22.6-19.2l-2.1-21s-4.1-41.5,61.8-45.8l166.6-10.9s41.3-2.7,45.4,38.5v.3Z" fill="#ddab89"/><polygon points="466.2 309 466.2 812.6 791.9 812.6 791.9 309 466.2 309" fill="#ededed"/><polygon points="466.2 309 466.2 812.6 791.9 812.6 791.9 309 466.2 309" fill="#f05e5f"/><path d="M791.8,309.4v-14s0-49.9-62.3-49.9H528.4s-62.3-4.7-62.3,49.9v14ZM466.1,813.1v42.4s0,37.5,62.3,37.5H729.6s62.3,2.8,62.3-51.7V813l-325.8.1Z" fill="#f05e5f"/><path d="M591.6,797s-27.3-16.1-14.7-33c0,0,27.9-41.2,51.8-19.9,3,2.7,23.5,16.4,7.6,39.1l-5.3,7.6s-15.9,22.7-38.5,6.8l-.9-.6Z" fill="#efcfb9"/><rect x="629.1" y="465.9" width="13.9" height="13.9" fill="#424242"/><rect x="615.2" y="479.8" width="13.9" height="13.9" fill="#424242"/><rect x="629.1" y="521.5" width="13.9" height="13.9" fill="#424242"/><rect x="643" y="535.4" width="13.9" height="13.9" fill="#424242"/><polygon points="601.3 563.2 601.3 577.1 615.2 577.1 629.1 577.1 629.1 563.2 629.1 549.3 615.2 549.3 615.2 563.2 601.3 563.2" fill="#424242"/><path d="M730.1,259.2H649.7c-5.7.8-8.8,2.8-10.5,4.6-2,2-3.8,5.1-7.5,5.7a9,9,0,0,1-2.2.1c-4.6-.4-7.1-4-10.8-6.6a23.31,23.31,0,0,0-10.3-3.8H528.1a44.9,44.9,0,0,0-44.9,44.9V838.4a44.9,44.9,0,0,0,44.9,44.9h202A44.9,44.9,0,0,0,775,838.4V304.1A44.9,44.9,0,0,0,730.1,259.2Z" fill="#424242"/><path d="M578.6,894.4s126.2-100.1,63.3-150.9c-38.6-31.2-62.5,30.7-99.1,46.8-58.9,26-76.8,45.1-76.8,45.1V627c-9.2,2.6-50,22.2-65.8,44.9s-97,247-101.9,262.1c-2.3,7.2-33.8,79.7-42.1,90H511.7c20.4-17.3,52.8-57.8,66.9-129.6Z" fill="#e8ba9c"/><path d="M719.9,665.9H543.3a25.8,25.8,0,0,1-25.8-25.8V463.6a25.8,25.8,0,0,1,25.8-25.8H719.9a25.8,25.8,0,0,1,25.8,25.8V640.2A25.84,25.84,0,0,1,719.9,665.9Z" fill="#fafbfb"/><polygon points="546.5 517.5 538.7 517.5 538.7 461 595.3 461 595.3 468.7 546.5 468.7 546.5 517.5" fill="#bdbdbd"/><polygon points="720.7 642.9 664.1 642.9 664.1 635.1 712.9 635.1 712.9 586.3 720.7 586.3 720.7 642.9" fill="#bdbdbd"/><polygon points="595.3 642.9 538.7 642.9 538.7 586.3 546.5 586.3 546.5 635.1 595.3 635.1 595.3 642.9" fill="#bdbdbd"/><polygon points="720.7 517.5 712.9 517.5 712.9 468.7 664.1 468.7 664.1 461 720.7 461 720.7 517.5" fill="#bdbdbd"/><circle cx="629.8" cy="259.2" r="5.1" fill="#424242"/><polygon points="573.5 495.7 573.5 507 573.5 518.2 584.8 518.2 596 518.2 596 507 596 495.7 584.8 495.7 573.5 495.7" fill="#424242"/><polygon points="663.4 495.7 663.4 507 663.4 518.2 674.7 518.2 685.9 518.2 685.9 507 685.9 495.7 674.7 495.7 663.4 495.7" fill="#424242"/><path d="M607.2,563.2V552h11.2V540.8H607.2V529.6h22.5V518.4H607.2V495.9h11.2V484.7H562.2v56.2h11.2V529.7h11.2v11.2H596v11.2H584.8v11.2Zm-39.3-39.4V490.1h33.7v33.7Z" fill="#424242"/><rect x="562.3" y="551.9" width="11.2" height="11.2" fill="#424242"/><polygon points="663.4 563.2 663.4 574.4 674.7 574.4 674.7 585.6 685.9 585.6 685.9 574.4 685.9 563.2 674.7 563.2 663.4 563.2" fill="#424242"/><rect x="674.7" y="540.7" width="11.2" height="11.2" fill="#424242"/><polygon points="663.4 596.9 652.2 596.9 652.2 585.6 652.2 574.4 652.2 563.2 641 563.2 641 574.4 629.7 574.4 629.7 585.6 641 585.6 641 596.9 641 608.1 652.2 608.1 663.4 608.1 663.4 619.3 674.7 619.3 674.7 608.1 674.7 596.9 674.7 585.6 663.4 585.6 663.4 596.9" fill="#424242"/><polygon points="685.9 608.1 685.9 619.3 697.2 619.3 697.2 608.1 697.2 596.9 697.2 585.6 685.9 585.6 685.9 596.9 685.9 608.1" fill="#424242"/><rect x="685.9" y="551.9" width="11.2" height="11.2" fill="#424242"/><path d="M629.7,596.9V585.7H607.2V574.5H584.7V563.3H573.5v11.2H562.3v45h45V608.3h11.2V597.1Zm-28.1,16.8H567.9V580h33.7Z" fill="#424242"/><polygon points="618.5 608.1 618.5 619.3 629.7 619.3 641 619.3 641 608.1 629.7 608.1 618.5 608.1" fill="#424242"/><path d="M652.2,484.5V507H629.7v11.2H641v11.2h22.5v11.2h11.2V529.4H686v11.2h11.2V484.4l-45,.1Zm5.7,39.3V490.1h33.7v33.7Z" fill="#424242"/><rect x="607.2" y="529.4" width="45" height="45" fill="#fafbfb"/><polygon points="596 608.1 596 596.9 596 585.6 584.8 585.6 573.5 585.6 573.5 596.9 573.5 608.1 584.8 608.1 596 608.1" fill="#424242"/><g opacity="0.8"><path d="M640.1,547.3c.2.6,1.5,3.9-.2,6.7a6.94,6.94,0,0,1-3.6,2.7c-3.7,1.5-5.9-.3-10.3.9a14.34,14.34,0,0,0-3.4,1.4,2.26,2.26,0,0,0-.8,3.2,2.1,2.1,0,0,0,2.5-.1,4.53,4.53,0,0,1-2.3,2.6,4.77,4.77,0,0,1-5.5-1.4s-3.5-6.9,3.2-10.3a16.85,16.85,0,0,1,5.4-1.6c6.6-.8,8.6.7,11.6-.9A6.24,6.24,0,0,0,640.1,547.3Z" fill="#c14d4d"/><path d="M643.8,535.1a17.43,17.43,0,0,1-8.4,3.8c-5,.7-6.9,2.2-6.9,2.2s-6.7,3-4.4,12.2-1.2,11-1.2,11-2.3,2.5-6.4-.7c0,0,4.3,8.2,11.3,4a12,12,0,0,0,3.1-7.3c.1-4.3-3-7-1.6-10.5a9.42,9.42,0,0,1,2-2.9,9.63,9.63,0,0,1,2.5-1.6,22.5,22.5,0,0,1,2.4-.8,13.35,13.35,0,0,0,5.7-3.2A8.16,8.16,0,0,0,643.8,535.1Z" fill="#f05e5f"/><path d="M643.8,535.1a9.8,9.8,0,0,1-2.2,4c-3.9,4.3-9.4,2.5-12.5,5.5-1.7,1.6-3,5-1.1,12.5,1.2,3.8.1,7.4-2.3,8.8a6.55,6.55,0,0,1-4.9.3,9,9,0,0,1-4.2-2.7c.1.3,2.2,4.7,6.8,5.2a7.73,7.73,0,0,0,4.9-1.1,7.51,7.51,0,0,0,2.2-2.5c1.2-2.3.9-4.8.5-7.9-.2-1.7-.4-2-.5-3.6a11.49,11.49,0,0,1,.4-4.5,8.34,8.34,0,0,1,2.2-3.3c.3-.2.7-.4,1-.6a13.31,13.31,0,0,1,3.4-1A8.24,8.24,0,0,0,643.8,535.1Z" fill="#e25455"/></g><rect x="629.8" y="484.4" width="11.3" height="11.3" fill="#424242"/><rect x="618.5" y="495.7" width="11.3" height="11.3" fill="#424242"/></svg>