<svg id="Layer_1" data-name="Layer 1" xmlns="http://www.w3.org/2000/svg" viewBox="0 0 427.32 181.82"><title>bill requested</title><g id="Objects"><g style="isolation:isolate"><text transform="translate(179.56 29.44)" font-size="12" font-family="ArialMT, Arial" style="isolation:isolate">R</text><text transform="translate(186.06 29.44)" font-size="12" font-family="ArialMT, Arial" style="isolation:isolate">e</text><text transform="translate(192.08 29.44)" font-size="12" font-family="ArialMT, Arial" letter-spacing="-0.01em" style="isolation:isolate">c</text><text transform="translate(197.38 29.44)" font-size="12" font-family="ArialMT, Arial" style="isolation:isolate">eipt</text></g><polygon points="244.73 34.89 244.8 34.89 244.77 34.86 244.73 34.89" fill="#d6d6d6"/><polygon points="251.06 34.89 251.69 34.89 251.37 34.58 251.06 34.89" fill="#d6d6d6"/><polygon points="238.91 34.89 238.95 34.89 238.93 34.87 238.91 34.89" fill="#d6d6d6"/><polygon points="275.92 34.89 276.14 34.89 276.03 34.78 275.92 34.89" fill="#d6d6d6"/><polygon points="260.11 34.89 260.27 34.89 260.19 34.81 260.11 34.89" fill="#d6d6d6"/><path d="M238.05,33.88v4.9h-25V161h75.19V38.78h0v-4.9Zm3.3,4.9Zm5.82,0Zm6.33,0,.31-.31.32.31Zm9.05,0,.08-.08.08.08Zm15.81,0,.11-.11.11.11Z" transform="translate(-2.44 -3.89)" fill="#d6d6d6"/><path d="M288.28,29a25.12,25.12,0,0,0-50.23,0v4.88h50.23Z" transform="translate(-2.44 -3.89)" fill="#d6d6d6"/><polygon points="275.92 34.89 276.14 34.89 276.03 34.78 275.92 34.89" fill="none"/><polygon points="251.06 34.89 251.69 34.89 251.37 34.58 251.06 34.89" fill="none"/><polygon points="260.11 34.89 260.27 34.89 260.19 34.81 260.11 34.89" fill="none"/><polygon points="244.73 34.89 244.8 34.89 244.77 34.86 244.73 34.89" fill="none"/><polygon points="238.91 34.89 238.95 34.89 238.93 34.87 238.91 34.89" fill="none"/><path d="M213.08,165.32a18.31,18.31,0,0,0,18.31,18.31h75.2a18.33,18.33,0,0,1-18.32-18.31V161H213.08Z" transform="translate(-2.44 -3.89)" fill="#d6d6d6"/><path d="M429.75,123.8a13.65,13.65,0,0,0-27.29-.74c0,.25,0,.49,0,.74v16.88h27.29Z" transform="translate(-2.44 -3.89)" fill="#d6d6d6"/><path d="M366.06,75.29a20.58,20.58,0,0,0-41.15,0v5.64h41.15Z" transform="translate(-2.44 -3.89)" fill="#d6d6d6"/><rect x="322.47" y="77.04" width="41.15" height="80.06" fill="#d6d6d6"/><path d="M366.06,163.46V161H324.91v4.34a18.43,18.43,0,0,1-10,16.33h69.37a18.2,18.2,0,0,1-18.2-18.19Z" transform="translate(-2.44 -3.89)" fill="#d6d6d6"/><path d="M288.27,165.32a18.32,18.32,0,0,0,36.64,0V144.69H288.27Z" transform="translate(-2.44 -3.89)" fill="#efefef"/><path d="M402.46,123.8a13.64,13.64,0,0,1,13.63-13.65h-50v34.54h36.4Z" transform="translate(-2.44 -3.89)" fill="#efefef"/><path d="M366.06,144.69v18.77a18.2,18.2,0,0,0,36.4,0V144.69Z" transform="translate(-2.44 -3.89)" fill="#efefef"/><path d="M330.93,60.75a20.52,20.52,0,0,1,14.55-6H288.27v90h36.64V75.29A20.5,20.5,0,0,1,330.93,60.75Z" transform="translate(-2.44 -3.89)" fill="#efefef"/><rect x="304.15" y="108.12" width="11.77" height="2.52" fill="#707070"/><rect x="307.49" y="116.34" width="8.44" height="2.52" fill="#707070"/><rect x="304.15" y="124.57" width="11.77" height="2.52" fill="#707070"/><rect x="304.15" y="132.79" width="11.77" height="2.52" fill="#707070"/><rect x="307.49" y="157.46" width="8.44" height="2.52" fill="#707070"/><rect x="307.49" y="141.01" width="8.44" height="2.52" fill="#707070"/><rect x="304.15" y="149.24" width="11.77" height="2.52" fill="#707070"/><rect x="304.15" y="75.78" width="11.77" height="2.52" fill="#707070"/><rect x="307.49" y="100.45" width="8.44" height="2.52" fill="#707070"/><rect x="307.49" y="84" width="8.44" height="2.52" fill="#707070"/><rect x="304.15" y="92.22" width="11.77" height="2.52" fill="#707070"/><polygon points="283.45 103.93 168.91 103.93 104.8 121.61 219.33 121.61 283.45 103.93" fill="#7f7f7f"/><polygon points="157.6 109.86 148.89 112.26 241.17 112.26 249.88 109.86 157.6 109.86" fill="#383838"/><rect x="104.8" y="121.6" width="114.53" height="17.26" fill="#939393"/><polygon points="104.8 138.86 0 168.6 114.54 168.6 219.33 138.86 104.8 138.86" fill="#7f7f7f"/><rect x="0.01" y="168.6" width="114.53" height="13.22" fill="#6b6b6b"/><path d="M285.89,107.82v32.8a12.18,12.18,0,0,1-7.36,11.18l-24.44,10.54a12.2,12.2,0,0,0-7.35,11.19h0a12.2,12.2,0,0,1-12.18,12.18H117V172.49l104.79-29.74V125.49Z" transform="translate(-2.44 -3.89)" fill="#707070"/><path d="M238.05,29A25.12,25.12,0,0,1,263.17,3.89H188.48A25.09,25.09,0,0,0,163.36,29v87.2h74.69Z" transform="translate(-2.44 -3.89)" fill="#efefef"/><rect x="160.92" y="110.76" width="74.69" height="1.5" fill="#efefef"/><polygon points="104.52 141.59 84.73 147.2 106.36 147.2 126.14 141.59 104.52 141.59" fill="#aaa"/><rect x="84.73" y="147.2" width="21.62" height="1.49" fill="#878787"/><polygon points="106.36 147.2 126.14 141.59 126.14 142.96 106.36 148.69 106.36 147.2" fill="#606060"/><polygon points="78.5 149.24 58.72 154.86 80.34 154.86 100.12 149.24 78.5 149.24" fill="#aaa"/><rect x="58.72" y="154.86" width="21.62" height="1.49" fill="#878787"/><polygon points="80.34 154.86 100.12 149.24 100.12 150.62 80.34 156.35 80.34 154.86" fill="#606060"/><polygon points="51.98 156.9 32.2 162.51 53.82 162.51 73.61 156.9 51.98 156.9" fill="#aaa"/><rect x="32.2" y="162.51" width="21.62" height="1.49" fill="#878787"/><polygon points="53.82 162.51 73.61 156.9 73.61 158.27 53.82 164.01 53.82 162.51" fill="#606060"/><polygon points="134.01 141.59 114.23 147.2 135.85 147.2 155.64 141.59 134.01 141.59" fill="#aaa"/><rect x="114.23" y="147.2" width="21.62" height="1.49" fill="#878787"/><polygon points="135.85 147.2 155.64 141.59 155.64 142.96 135.85 148.69 135.85 147.2" fill="#606060"/><polygon points="108 149.24 88.21 154.86 109.84 154.86 129.62 149.24 108 149.24" fill="#aaa"/><rect x="88.21" y="154.86" width="21.62" height="1.49" fill="#878787"/><polygon points="109.84 154.86 129.62 149.24 129.62 150.62 109.84 156.35 109.84 154.86" fill="#606060"/><polygon points="81.48 156.9 61.69 162.51 83.32 162.51 103.1 156.9 81.48 156.9" fill="#aaa"/><rect x="61.69" y="162.51" width="21.62" height="1.49" fill="#878787"/><polygon points="83.32 162.51 103.1 156.9 103.1 158.27 83.32 164.01 83.32 162.51" fill="#606060"/><polygon points="164.31 141.59 144.53 147.2 166.15 147.2 185.94 141.59 164.31 141.59" fill="#aaa"/><rect x="144.53" y="147.2" width="21.62" height="1.49" fill="#878787"/><polygon points="166.15 147.2 185.94 141.59 185.94 142.96 166.15 148.69 166.15 147.2" fill="#606060"/><polygon points="138.3 149.24 118.51 154.86 140.14 154.86 159.92 149.24 138.3 149.24" fill="#aaa"/><rect x="118.51" y="154.86" width="21.62" height="1.49" fill="#878787"/><polygon points="140.14 154.86 159.92 149.24 159.92 150.62 140.14 156.35 140.14 154.86" fill="#606060"/><polygon points="111.78 156.9 91.99 162.51 113.62 162.51 133.4 156.9 111.78 156.9" fill="#f15d5f"/><rect x="91.99" y="162.51" width="21.62" height="1.49" fill="#cc5056"/><polygon points="113.62 162.51 133.4 156.9 133.4 158.27 113.62 164.01 113.62 162.51" fill="#a03f44"/><rect x="167.02" y="58.78" width="23.87" height="2.52" fill="#707070"/><rect x="167.02" y="67" width="16.04" height="2.52" fill="#707070"/><rect x="167.02" y="75.23" width="21.32" height="2.52" fill="#707070"/><rect x="167.02" y="83.45" width="27.4" height="2.52" fill="#707070"/><rect x="167.02" y="108.12" width="23.87" height="2.52" fill="#707070"/><rect x="167.02" y="91.67" width="43.47" height="2.52" fill="#707070"/><rect x="167.02" y="99.9" width="20.21" height="2.52" fill="#707070"/><rect x="218.8" y="58.78" width="8.39" height="2.52" fill="#707070"/><rect x="221.18" y="67" width="6.01" height="2.52" fill="#707070"/><rect x="218.8" y="75.23" width="8.39" height="2.52" fill="#707070"/><rect x="218.8" y="83.45" width="8.39" height="2.52" fill="#707070"/><rect x="221.18" y="108.12" width="6.01" height="2.52" fill="#707070"/><rect x="221.18" y="91.67" width="6.01" height="2.52" fill="#707070"/><rect x="218.8" y="99.9" width="8.39" height="2.52" fill="#707070"/><path d="M182.18,53.12a.2.2,0,0,1-.16-.07l-1.27-1.26a.24.24,0,0,1,.32-.35l0,0,1.26,1.26a.24.24,0,0,1,0,.34.2.2,0,0,1-.15.06Z" transform="translate(-2.44 -3.89)" fill="#455a64"/><path d="M180.92,53.12a.24.24,0,0,1-.23-.25.22.22,0,0,1,.06-.15L182,51.46a.22.22,0,0,1,.31,0l0,0a.24.24,0,0,1,0,.33l-1.26,1.26A.21.21,0,0,1,180.92,53.12Z" transform="translate(-2.44 -3.89)" fill="#455a64"/><path d="M219.76,53.12a.22.22,0,0,1-.17-.07l-1.26-1.26a.24.24,0,0,1,0-.33.22.22,0,0,1,.31,0l0,0,1.26,1.26a.22.22,0,0,1,0,.31l0,0A.2.2,0,0,1,219.76,53.12Z" transform="translate(-2.44 -3.89)" fill="#455a64"/><path d="M218.5,53.12a.22.22,0,0,1-.17-.07.24.24,0,0,1,0-.33l1.26-1.26a.23.23,0,0,1,.33.33l-1.26,1.26A.2.2,0,0,1,218.5,53.12Z" transform="translate(-2.44 -3.89)" fill="#455a64"/><path d="M214,53.12a.22.22,0,0,1-.17-.07l-1.26-1.26a.24.24,0,0,1,0-.33.22.22,0,0,1,.31,0l0,0,1.26,1.26a.22.22,0,0,1,0,.31l0,0A.2.2,0,0,1,214,53.12Z" transform="translate(-2.44 -3.89)" fill="#455a64"/><path d="M212.72,53.12a.22.22,0,0,1-.17-.07.24.24,0,0,1,0-.33l1.26-1.26a.23.23,0,0,1,.33.33l-1.26,1.26A.2.2,0,0,1,212.72,53.12Z" transform="translate(-2.44 -3.89)" fill="#455a64"/><path d="M211.09,53.12a.22.22,0,0,1-.17-.07l-1.26-1.26a.23.23,0,1,1,.33-.33l1.26,1.26a.22.22,0,0,1,0,.31l0,0A.2.2,0,0,1,211.09,53.12Z" transform="translate(-2.44 -3.89)" fill="#455a64"/><path d="M209.83,53.12a.24.24,0,0,1-.19-.38l0,0,1.26-1.26a.23.23,0,0,1,.33.33L210,53.05A.19.19,0,0,1,209.83,53.12Z" transform="translate(-2.44 -3.89)" fill="#455a64"/><path d="M208.2,53.12a.22.22,0,0,1-.17-.07l-1.26-1.26a.23.23,0,0,1,.33-.33l1.26,1.26a.22.22,0,0,1,0,.31l0,0A.2.2,0,0,1,208.2,53.12Z" transform="translate(-2.44 -3.89)" fill="#455a64"/><path d="M206.94,53.12a.24.24,0,0,1-.19-.38l0,0L208,51.46a.23.23,0,1,1,.33.33l-1.26,1.26A.21.21,0,0,1,206.94,53.12Z" transform="translate(-2.44 -3.89)" fill="#455a64"/><path d="M205.31,53.12a.22.22,0,0,1-.17-.07l-1.26-1.26a.23.23,0,0,1,.33-.33l1.26,1.26a.22.22,0,0,1,0,.31l0,0A.2.2,0,0,1,205.31,53.12Z" transform="translate(-2.44 -3.89)" fill="#455a64"/><path d="M204,53.12a.2.2,0,0,1-.16-.07.22.22,0,0,1,0-.31l0,0,1.26-1.26a.23.23,0,0,1,.33.33l-1.26,1.26A.22.22,0,0,1,204,53.12Z" transform="translate(-2.44 -3.89)" fill="#455a64"/><path d="M202.42,53.12a.22.22,0,0,1-.17-.07L201,51.79a.23.23,0,0,1,.33-.33l1.26,1.26a.22.22,0,0,1,0,.31l0,0A.19.19,0,0,1,202.42,53.12Z" transform="translate(-2.44 -3.89)" fill="#455a64"/><path d="M201.15,53.12a.2.2,0,0,1-.16-.07.22.22,0,0,1,0-.31l0,0,1.26-1.26a.23.23,0,1,1,.33.33l-1.26,1.26A.22.22,0,0,1,201.15,53.12Z" transform="translate(-2.44 -3.89)" fill="#455a64"/><path d="M216.87,53.12a.22.22,0,0,1-.17-.07l-1.26-1.26a.24.24,0,0,1,0-.33.22.22,0,0,1,.31,0l0,0L217,52.72a.22.22,0,0,1,0,.31l0,0A.21.21,0,0,1,216.87,53.12Z" transform="translate(-2.44 -3.89)" fill="#455a64"/><path d="M215.61,53.12a.22.22,0,0,1-.17-.07.24.24,0,0,1,0-.33l1.26-1.26a.23.23,0,1,1,.33.33l-1.26,1.26A.2.2,0,0,1,215.61,53.12Z" transform="translate(-2.44 -3.89)" fill="#455a64"/><path d="M196.63,53.12a.2.2,0,0,1-.16-.07l-1.26-1.26a.23.23,0,0,1,.33-.33l1.26,1.26a.22.22,0,0,1,0,.31l0,0A.22.22,0,0,1,196.63,53.12Z" transform="translate(-2.44 -3.89)" fill="#455a64"/><path d="M195.37,53.12a.2.2,0,0,1-.16-.07.22.22,0,0,1,0-.31l0,0,1.26-1.26a.23.23,0,0,1,.33.33l-1.26,1.26A.22.22,0,0,1,195.37,53.12Z" transform="translate(-2.44 -3.89)" fill="#455a64"/><path d="M193.74,53.12a.2.2,0,0,1-.16-.07l-1.26-1.26a.23.23,0,0,1,.33-.33l1.26,1.26a.24.24,0,0,1,0,.33A.22.22,0,0,1,193.74,53.12Z" transform="translate(-2.44 -3.89)" fill="#455a64"/><path d="M192.48,53.12a.2.2,0,0,1-.16-.07.22.22,0,0,1,0-.31l0,0,1.26-1.26a.22.22,0,0,1,.31,0l0,0a.24.24,0,0,1,0,.33l-1.26,1.26A.22.22,0,0,1,192.48,53.12Z" transform="translate(-2.44 -3.89)" fill="#455a64"/><path d="M188,53.12a.2.2,0,0,1-.16-.07l-1.26-1.26a.23.23,0,0,1,.33-.33l1.26,1.26a.24.24,0,0,1,0,.33A.22.22,0,0,1,188,53.12Z" transform="translate(-2.44 -3.89)" fill="#455a64"/><path d="M186.7,53.12a.2.2,0,0,1-.16-.07.22.22,0,0,1,0-.31l0,0,1.26-1.26a.22.22,0,0,1,.31,0l0,0a.24.24,0,0,1,0,.33l-1.26,1.26A.22.22,0,0,1,186.7,53.12Z" transform="translate(-2.44 -3.89)" fill="#455a64"/><path d="M185.07,53.12a.2.2,0,0,1-.16-.07l-1.27-1.26a.24.24,0,0,1,.32-.35l0,0,1.26,1.26a.24.24,0,0,1,0,.34.2.2,0,0,1-.15.06Z" transform="translate(-2.44 -3.89)" fill="#455a64"/><path d="M183.81,53.12a.24.24,0,0,1-.23-.25.22.22,0,0,1,.06-.15l1.27-1.26a.22.22,0,0,1,.31,0l0,0a.24.24,0,0,1,0,.33L184,53.05A.23.23,0,0,1,183.81,53.12Z" transform="translate(-2.44 -3.89)" fill="#455a64"/><path d="M190.85,53.12a.2.2,0,0,1-.16-.07l-1.26-1.26a.23.23,0,0,1,.33-.33L191,52.72a.24.24,0,0,1,0,.33A.21.21,0,0,1,190.85,53.12Z" transform="translate(-2.44 -3.89)" fill="#455a64"/><path d="M189.59,53.12a.2.2,0,0,1-.16-.07.22.22,0,0,1,0-.31l0,0,1.26-1.26a.22.22,0,0,1,.31,0l0,0a.24.24,0,0,1,0,.33l-1.26,1.26A.22.22,0,0,1,189.59,53.12Z" transform="translate(-2.44 -3.89)" fill="#455a64"/><path d="M199.52,53.12a.2.2,0,0,1-.16-.07l-1.26-1.26a.23.23,0,1,1,.33-.33l1.26,1.26a.22.22,0,0,1,0,.31l0,0A.22.22,0,0,1,199.52,53.12Z" transform="translate(-2.44 -3.89)" fill="#455a64"/><path d="M198.26,53.12a.2.2,0,0,1-.16-.07.22.22,0,0,1,0-.31l0,0,1.26-1.26a.23.23,0,0,1,.33.33l-1.26,1.26A.22.22,0,0,1,198.26,53.12Z" transform="translate(-2.44 -3.89)" fill="#455a64"/></g></svg>