<svg id="Layer_1" data-name="Layer 1" xmlns="http://www.w3.org/2000/svg" viewBox="0 0 196.17 223.33">
  <title>notepad no active</title>
  <path d="M173.44,0H29.56A22.76,22.76,0,0,0,6.83,22.72V50.83h12V22.72A10.74,10.74,0,0,1,29.56,12H173.44a10.74,10.74,0,0,1,10.73,10.72V200.61a10.74,10.74,0,0,1-10.73,10.72H29.56a10.74,10.74,0,0,1-10.73-10.72V168.83h-12v31.78a22.76,22.76,0,0,0,22.73,22.72H173.44a22.76,22.76,0,0,0,22.73-22.72V22.72A22.76,22.76,0,0,0,173.44,0Z" style="fill: #707070"/>
  <rect x="6.83" y="73.33" width="12" height="25.5" style="fill: #707070"/>
  <rect x="6.83" y="121.33" width="12" height="25" style="fill: #707070"/>
  <rect x="0.5" y="151.17" width="25.33" height="12" style="fill: #707070"/>
  <path d="M32.5,168.33A11.5,11.5,0,1,1,44,156.83h0A11.51,11.51,0,0,1,32.5,168.33Zm0-17a5.5,5.5,0,1,0,5.5,5.5A5.5,5.5,0,0,0,32.5,151.33Z" style="fill: #707070"/>
  <rect y="56.17" width="25.33" height="12" style="fill: #707070"/>
  <path d="M32,73.33a11.5,11.5,0,1,1,11.5-11.5h0A11.51,11.51,0,0,1,32,73.33Zm0-17a5.5,5.5,0,1,0,5.5,5.5A5.5,5.5,0,0,0,32,56.33Z" style="fill: #707070"/>
  <rect x="0.5" y="103.67" width="25.33" height="12" style="fill: #707070"/>
  <path d="M32.5,120.83A11.5,11.5,0,1,1,44,109.33h0A11.51,11.51,0,0,1,32.5,120.83Zm0-17a5.5,5.5,0,1,0,5.5,5.5A5.5,5.5,0,0,0,32.5,103.83Z" style="fill: #707070"/>
  <path d="M138,194.33a12.94,12.94,0,0,1,2.58-3.26,11.37,11.37,0,0,1,3.65-2.31,9.22,9.22,0,0,1,4.56-.59,9.45,9.45,0,0,1,4.32,1.73l.92.69c.25.18.46.36.7.55a9.32,9.32,0,0,0,1.42,1,7.17,7.17,0,0,0,3.11,1c2.2.11,4.61-1,6.74-2.76a9.21,9.21,0,0,1-2.48,3.41,8.22,8.22,0,0,1-4.11,1.89,8.8,8.8,0,0,1-4.63-.77,10.22,10.22,0,0,1-2-1.16l-1.59-1.18a8.34,8.34,0,0,0-2.95-1.47l-.8-.17h-.84a6.17,6.17,0,0,0-.86,0,5,5,0,0,0-.86.13,13.37,13.37,0,0,0-3.51,1.25A26.13,26.13,0,0,0,138,194.33Z" style="fill: #f1f0f0"/>
  <path d="M51,51.23a25.49,25.49,0,0,1,6.66-5.71,23.25,23.25,0,0,1,8.46-3.09,20,20,0,0,1,9.17.9,24.13,24.13,0,0,1,4.2,2c.64.43,1.31.82,1.93,1.27s1.25,1,1.79,1.31a25,25,0,0,0,14.92,5.28,27.72,27.72,0,0,0,8-1.07,32,32,0,0,0,3.81-1.36c.62-.26,1.23-.55,1.83-.85s1.21-.64,1.66-.92l-.21.16a35.29,35.29,0,0,1,3.53-2.52c1.19-.76,2.42-1.45,3.68-2.1a41.27,41.27,0,0,1,8-3.08,31.35,31.35,0,0,1,8.56-1.12,28.93,28.93,0,0,1,8.6,1.44l-.24-.07a23.27,23.27,0,0,1,5.11,1.9,18.25,18.25,0,0,1,4.48,3.11,12.08,12.08,0,0,1,3,4.61,9.13,9.13,0,0,1,.06,5.28,11.46,11.46,0,0,0-1.67-4.51A12.25,12.25,0,0,0,153,49a21.4,21.4,0,0,0-4.11-2c-.73-.28-1.46-.53-2.21-.75s-1.54-.43-2.19-.55h0l-.24-.06a24.44,24.44,0,0,0-7.31-1,28.94,28.94,0,0,0-7.4,1.06,40,40,0,0,0-7,2.82c-1.13.59-2.24,1.22-3.32,1.9a34.35,34.35,0,0,0-3.07,2.14l-.16.12h-.06c-.77.47-1.41.81-2.12,1.16s-1.4.66-2.12.94a34.13,34.13,0,0,1-4.39,1.44,31.63,31.63,0,0,1-9.19,1,28.42,28.42,0,0,1-17-6.65c-.64-.48-1.11-.88-1.65-1.31s-1.1-.78-1.65-1.18a22.78,22.78,0,0,0-3.56-1.87,18.51,18.51,0,0,0-7.85-1.34C60.92,45.17,55.56,47.69,51,51.23Z" style="fill: #f1f0f0"/>
  <path d="M52.8,121.61a25.61,25.61,0,0,1,6.66-5.7,22.9,22.9,0,0,1,8.46-3.09,19.57,19.57,0,0,1,9.17.92,24.3,24.3,0,0,1,4.21,1.94c.64.42,1.31.81,1.92,1.27s1.26,1,1.8,1.3a24.87,24.87,0,0,0,14.92,5.28,27.42,27.42,0,0,0,8-1.07,32,32,0,0,0,3.81-1.36c.62-.26,1.23-.54,1.82-.84a18.19,18.19,0,0,0,1.67-.93l-.21.16a37.61,37.61,0,0,1,3.52-2.52c1.2-.76,2.43-1.45,3.69-2.09a40.3,40.3,0,0,1,7.94-3.08,31.74,31.74,0,0,1,8.56-1.12,28.78,28.78,0,0,1,8.58,1.47l-.24-.06a23.24,23.24,0,0,1,5.11,1.89,18.52,18.52,0,0,1,4.48,3.11,12.08,12.08,0,0,1,3,4.61,9.3,9.3,0,0,1,.06,5.28,11.78,11.78,0,0,0-1.67-4.51,12.25,12.25,0,0,0-3.28-3.1,21,21,0,0,0-4.11-2.05c-.73-.28-1.46-.53-2.21-.74s-1.45-.41-2.19-.56h0L146,116a24.83,24.83,0,0,0-7.32-1,29.25,29.25,0,0,0-7.38,1.13,40.62,40.62,0,0,0-7.06,2.82c-1.13.59-2.24,1.22-3.32,1.91a32.3,32.3,0,0,0-3.07,2.13l-.16.13h-.06c-.77.48-1.41.81-2.12,1.17s-1.4.66-2.12.94a35.7,35.7,0,0,1-4.39,1.43,31.63,31.63,0,0,1-9.19,1,28.4,28.4,0,0,1-17-6.65c-.64-.48-1.11-.87-1.65-1.31s-1.1-.78-1.65-1.18A21.91,21.91,0,0,0,76,116.62a18.38,18.38,0,0,0-7.86-1.35C62.71,115.56,57.35,118.07,52.8,121.61Z" style="fill: #f1f0f0"/>
  <path d="M57.57,83.54a34.64,34.64,0,0,0,13.09,5.33,18,18,0,0,0,6.66-.2l1.59-.43c.53-.17,1-.43,1.53-.64A19.85,19.85,0,0,0,83.33,86l.35-.21.41-.26.82-.52c.55-.34,1.08-.71,1.65-1,1.15-.57,2.26-1.26,3.48-1.73q.9-.39,1.8-.75l1.86-.6a17.44,17.44,0,0,1,1.88-.52c.64-.14,1.27-.32,1.91-.41a34.36,34.36,0,0,1,7.78-.56,36.3,36.3,0,0,1,3.89.37,25.5,25.5,0,0,1,3.94.89h.18l.16.09a31.51,31.51,0,0,0,3.83,1.64c.67.24,1.36.44,2,.67l2.07.58a41.2,41.2,0,0,0,8.56,1.23c1.46.12,2.9,0,4.37,0a39.87,39.87,0,0,0,4.35-.59,44,44,0,0,0,8.57-2.56A32.9,32.9,0,0,1,139.07,86a36.88,36.88,0,0,1-4.48,1.28,38,38,0,0,1-4.64.61,38.85,38.85,0,0,1-9.39-.46c-.77-.15-1.54-.29-2.31-.46s-1.53-.38-2.29-.61-1.52-.47-2.27-.74-1.46-.55-2.3-.94l.34.14a29.5,29.5,0,0,0-3.23-.57c-1.13-.12-2.27-.2-3.41-.21a33.88,33.88,0,0,0-6.82.54,34.91,34.91,0,0,0-6.58,1.83c-1.09.35-2.1.91-3.16,1.36l-3,1.69a20.81,20.81,0,0,1-3.64,1.7c-.64.21-1.26.47-1.91.63l-2,.38a20,20,0,0,1-7.9-.4A24,24,0,0,1,57.57,83.54Z" style="fill: #f1f0f0"/>
  <path d="M149.19,160.1a34.86,34.86,0,0,0-12.86-5.89,18.41,18.41,0,0,0-6.66-.08l-1.61.36c-.53.15-1,.39-1.55.57a19.89,19.89,0,0,0-3,1.48l-.36.2-.42.24-.84.49c-.56.31-1.11.65-1.69,1-1.18.53-2.32,1.17-3.55,1.59-.61.23-1.22.46-1.83.67l-1.89.52c-.62.19-1.26.31-1.9.44a18.09,18.09,0,0,1-1.93.33,34.41,34.41,0,0,1-7.79.23c-1.3-.1-2.58-.3-3.87-.53a26.12,26.12,0,0,1-3.9-1.06l-.18-.06-.15-.09a30.87,30.87,0,0,0-3.76-1.8c-.66-.28-1.34-.5-2-.76l-2.06-.67a42.26,42.26,0,0,0-8.49-1.6c-1.45-.17-2.9-.09-4.36-.14a37.72,37.72,0,0,0-4.38.4,43.24,43.24,0,0,0-8.67,2.2,33.07,33.07,0,0,1,8.29-3.9,36.88,36.88,0,0,1,4.53-1.09,39.22,39.22,0,0,1,14,.45c.77.18,1.53.35,2.3.56s1.51.44,2.26.7,1.49.53,2.23.84,1.44.61,2.26,1l-.33-.16a29,29,0,0,0,3.2.72c1.13.16,2.26.29,3.4.35a36.45,36.45,0,0,0,13.52-1.83c1.11-.3,2.14-.82,3.22-1.23l3.15-1.57a20.64,20.64,0,0,1,3.7-1.54c.65-.18,1.28-.42,1.94-.55l2-.3a19.94,19.94,0,0,1,7.87.74A24,24,0,0,1,149.19,160.1Z" style="fill: #f1f0f0"/>
</svg>
