<?xml version="1.0" encoding="utf-8"?>
<!-- Generator: Adobe Illustrator 22.0.0, SVG Export Plug-In . SVG Version: 6.00 Build 0)  -->
<svg version="1.1" id="Layer_1" xmlns="http://www.w3.org/2000/svg" xmlns:xlink="http://www.w3.org/1999/xlink" x="0px" y="0px"
	 viewBox="0 0 192 177.3" style="enable-background:new 0 0 192 177.3;" xml:space="preserve">
<style type="text/css">
	.st0{fill:#707071;}
	.st1{fill:none;stroke:#707070;stroke-width:23;stroke-linecap:round;stroke-linejoin:round;}
	.st2{fill:none;stroke:#707070;stroke-width:23;stroke-linejoin:round;}
	.st3{fill:none;stroke:#707070;stroke-width:7;stroke-miterlimit:10;}
	.st4{fill:#707071;stroke:#707070;stroke-width:7;stroke-miterlimit:10;}
	.st5{font-family:'CoolveticaRg-Regular';}
	.st6{font-size:28px;}
</style>
<title>Artboard 1</title>
<path class="st0" d="M13.6,46.4c37.8-43.2,126.7-43.2,164.5,0C140.3,3.2,51.4,3.2,13.6,46.4z"/>
<path class="st1" d="M13.6,46.4c37.8-43.2,126.7-43.2,164.5,0C140.3,3.2,51.4,3.2,13.6,46.4z"/>
<path class="st0" d="M40.8,72.6c25.3-28.9,84.8-28.9,110.1,0C125.6,43.7,66.1,43.7,40.8,72.6z"/>
<path class="st2" d="M40.8,72.6c25.3-28.9,84.8-28.9,110.1,0C125.6,43.7,66.1,43.7,40.8,72.6z"/>
<path class="st0" d="M65.5,98.8c14-16,46.8-16,60.8,0C112.3,82.8,79.5,82.8,65.5,98.8z"/>
<path class="st2" d="M65.5,98.8c14-16,46.8-16,60.8,0C112.3,82.8,79.5,82.8,65.5,98.8z"/>
<circle class="st3" cx="95.9" cy="126.7" r="16"/>
<path class="st4" d="M83.8,137.1l22.6-22.6L83.8,137.1z"/>
<text transform="matrix(1 0 0 1 13.6133 175.1667)" class="st0 st5 st6">no connection</text>
</svg>
