<?xml version="1.0" encoding="utf-8"?><!--Generator: Adobe Illustrator 22.0.0, SVG Export Plug-In . SVG Version: 6.00 Build 0)--><!DOCTYPE svg PUBLIC "-//W3C//DTD SVG 1.1//EN" "http://www.w3.org/Graphics/SVG/1.1/DTD/svg11.dtd" [
	<!ENTITY ns_extend "http://ns.adobe.com/Extensibility/1.0/">
	<!ENTITY ns_ai "http://ns.adobe.com/AdobeIllustrator/10.0/">
	<!ENTITY ns_graphs "http://ns.adobe.com/Graphs/1.0/">
	<!ENTITY ns_vars "http://ns.adobe.com/Variables/1.0/">
	<!ENTITY ns_imrep "http://ns.adobe.com/ImageReplacement/1.0/">
	<!ENTITY ns_sfw "http://ns.adobe.com/SaveForWeb/1.0/">
	<!ENTITY ns_custom "http://ns.adobe.com/GenericCustomNamespace/1.0/">
	<!ENTITY ns_adobe_xpath "http://ns.adobe.com/XPath/1.0/">
	]>
<svg id="Layer_1" xmlns="http://www.w3.org/2000/svg" viewBox="0 0 515.9 233"><style>.st1{fill:#f15e5f}</style><switch><g><path d="M190.6 21.4c.4 1 2.5 6.6-.4 11.2-1.7 2.7-4.4 3.9-5.9 4.5-6.2 2.5-9.8-.4-17.1 1.6-2.5.7-4.4 1.7-5.6 2.4-2.2 1.7-2.4 4.4-1.3 5.4.8.8 2.6.8 4.1-.1-.2.6-1.2 3.1-3.8 4.3-2.9 1.3-6.7.4-9.2-2.4 0 0-5.8-11.4 5.4-17 2.5-1.3 4.9-2.1 9-2.6 11-1.3 14.3 1.2 19.2-1.5 1.4-.8 3.6-2.4 5.6-5.8z" fill="#c24e4e"/><path class="st1" d="M196.6 1s-5.7 5.1-14 6.3c-8.3 1.2-11.5 3.7-11.5 3.7s-11.1 4.9-7.2 20.2c3.8 15.3-2 18.2-2 18.2s-3.8 4.2-10.7-1.2c0 0 7.1 13.7 18.8 6.7 4.1-5 5.1-9.1 5.1-12 .1-7.1-4.9-11.7-2.6-17.4 1.1-2.8 3.3-4.7 3.3-4.7 1.5-1.4 3-2.1 4.2-2.6 1.8-.8 3.2-1.2 4.1-1.4.7-.2 6.3-1.8 9.4-5.2 3.2-3.4 3.3-8.1 3.1-10.6z"/><path d="M196.6 1c-.5 1.7-1.6 4.3-3.7 6.7-6.5 7.1-15.6 4.1-20.8 9.1-2.8 2.7-5 8.2-1.9 20.8 1.9 6.3.1 12.4-3.7 14.6-3.2 1.8-7.1.8-8.2.5-3.9-1-6.1-3.5-7-4.5.2.5 3.7 7.8 11.2 8.7 3.8.4 6.8-1 8-1.8 2.1-1.5 3.1-3.1 3.7-4.2 2-3.8 1.5-7.9.8-13-.4-2.8-.7-3.3-.8-5.9-.1-2.7-.2-4.9.6-7.4.4-1.2 1.4-3.4 3.6-5.5.5-.3 1.1-.7 1.7-1 1.2-.6 3-1.2 5.6-1.7.1 0 11.9-2.5 10.9-15.4z" fill="#e15455"/><path class="st1" d="M16.9 179.5V86.9H0V65.6h16.9c0-27.8 16.1-41.7 48.4-41.7v24.3c-3.9 0-7 .3-9.4.8-2.4.5-4.3 1.5-5.7 2.9s-2.4 3.2-2.9 5.4-.8 5-.8 8.2H66v21.3H46.5v92.6H16.9zM73.4 179.5V65.6h28.3v13.7c2.5-3.9 5.1-6.9 7.8-9 2.7-2.2 5.5-3.8 8.3-5 2.9-1.2 5.7-1.9 8.7-2.2 2.9-.3 5.9-.5 9-.5h3.9v30.8c-2.8-.5-5.6-.7-8.3-.7-18.4 0-27.6 9.2-27.6 27.6v59.3H73.4zM148.4 65.6h30.1v113.9h-30.1zM260.7 100.1c-.8-5.6-2.8-9.5-6-11.7-3.2-2.2-8.3-3.4-15.3-3.4-5.7 0-10.1.7-13.2 2.2-3.1 1.5-4.6 3.9-4.6 7.3s1.5 6 4.6 7.8c3.1 1.8 7.7 3.5 13.9 5.2 6.5 1.9 12.7 3.5 18.5 5 5.9 1.5 11 3 15.5 4.7 6 2.5 10.7 5.8 13.9 10.1 3.2 4.2 4.9 10.1 4.9 17.5 0 11.9-4.2 21.2-12.6 27.8-8.4 6.6-20.8 10-37.2 10-17.6 0-31.1-3.7-40.4-11.1-9.3-7.4-14.2-16.9-14.5-28.5h31c0 5.4 2.1 9.6 6.3 12.5 4.2 2.9 10 4.4 17.4 4.4 5.4 0 10.1-.9 14.1-2.7 4-1.8 6-4.8 6-9.1 0-4-1.8-6.9-5.4-8.6-3.6-1.7-7.9-3.2-12.9-4.4-9.6-2.3-17.3-4.4-23.2-6.3-5.9-1.9-10.8-4.1-14.8-6.7-5.4-3.4-9.1-7.3-11.2-11.6-2.1-4.3-3.1-9-3.1-14.1 0-4.8.8-9.3 2.5-13.4 1.7-4.2 4.5-7.8 8.3-10.8 3.9-3 8.8-5.4 14.9-7.1 6.1-1.7 13.5-2.5 22.1-2.5 16.5 0 28.7 3.2 36.5 9.5 7.8 6.3 12.1 15.7 12.9 28h-28.9zM371.4 179.5l-25-51.2-14.6 15.1v36.1h-30.3V23.9h30.3v85l37.5-43.3h36.8l-38.2 41.9 37.3 72h-33.8zM485.8 164.4c-2.2 5.1-6.1 9.1-11.7 11.9-5.6 2.9-12 4.3-19.1 4.3-6 0-11.6-1-16.7-2.9s-9.5-4.7-13.2-8.3c-3.7-3.6-6.6-7.9-8.7-13-2.1-5-3.1-10.7-3.1-17V65.6h30.1V135c0 14.2 6.4 21.3 19.2 21.3 6.9 0 12.5-2 16.8-6 4.2-4 6.4-9.1 6.4-15.3V65.6h30.1v116.9c0 8-1.4 15.2-4.1 21.5-2.7 6.3-6.4 11.7-11.1 16-4.7 4.3-10.3 7.6-16.7 10-6.4 2.3-13.2 3.5-20.5 3.5-16.8 0-29.4-4.2-37.7-12.7-8.3-8.5-12.5-20.1-12.5-35h28c0 6.8 2 12.1 5.9 16 3.9 3.9 9.8 5.8 17.7 5.8 2.8 0 5.4-.6 7.9-1.7 2.5-1.2 4.7-2.8 6.6-4.9 1.9-2.1 3.5-4.7 4.6-7.8 1.2-3.1 1.7-6.5 1.7-10.2v-18.6z"/></g></switch></svg>